solid esp32_rio_case (FDM)
facet normal 0.0 0.0 -1.0
  outer loop
    vertex -25.21537019600589 -36.15206667107062 11.010000000000003
    vertex -25.215370196005885 -37.057933328929444 11.010000000000003
    vertex -25.27500000000002 -36.60500000000003 11.010000000000003
  endloop
endfacet
facet normal 0.0 0.0 -1.0
  outer loop
    vertex -25.215370196005885 -37.057933328929444 11.010000000000003
    vertex -25.21537019600589 -36.15206667107062 11.010000000000003
    vertex -25.040544456622786 -35.73000000000003 11.010000000000003
  endloop
endfacet
facet normal 0.0 0.0 -1.0
  outer loop
    vertex -25.215370196005885 -37.057933328929444 11.010000000000003
    vertex -25.040544456622786 -35.73000000000003 11.010000000000003
    vertex -25.040544456622786 -37.48000000000003 11.010000000000003
  endloop
endfacet
facet normal 0.0 0.0 -1.0
  outer loop
    vertex -25.040544456622786 -37.48000000000003 11.010000000000003
    vertex -25.040544456622786 -35.73000000000003 11.010000000000003
    vertex -24.762436867076477 -35.36756313292358 11.010000000000003
  endloop
endfacet
facet normal 0.0 0.0 -1.0
  outer loop
    vertex -25.040544456622786 -37.48000000000003 11.010000000000003
    vertex -24.762436867076477 -35.36756313292358 11.010000000000003
    vertex -24.762436867076477 -37.842436867076486 11.010000000000003
  endloop
endfacet
facet normal 0.0 0.0 -1.0
  outer loop
    vertex -24.762436867076477 -37.842436867076486 11.010000000000003
    vertex -24.762436867076477 -35.36756313292358 11.010000000000003
    vertex -24.40000000000002 -35.08945554337727 11.010000000000003
  endloop
endfacet
facet normal 0.0 0.0 -1.0
  outer loop
    vertex -24.762436867076477 -37.842436867076486 11.010000000000003
    vertex -24.40000000000002 -35.08945554337727 11.010000000000003
    vertex -24.400000000000016 -38.1205444566228 11.010000000000003
  endloop
endfacet
facet normal 0.0 0.0 -1.0
  outer loop
    vertex -24.400000000000016 -38.1205444566228 11.010000000000003
    vertex -24.40000000000002 -35.08945554337727 11.010000000000003
    vertex -23.97793332892943 -34.91462980399417 11.010000000000003
  endloop
endfacet
facet normal 0.0 0.0 -1.0
  outer loop
    vertex -24.400000000000016 -38.1205444566228 11.010000000000003
    vertex -23.97793332892943 -34.91462980399417 11.010000000000003
    vertex -23.97793332892943 -38.2953701960059 11.010000000000003
  endloop
endfacet
facet normal 0.0 0.0 -1.0
  outer loop
    vertex -23.97793332892943 -38.2953701960059 11.010000000000003
    vertex -23.97793332892943 -34.91462980399417 11.010000000000003
    vertex -23.52500000000002 -34.85500000000003 11.010000000000003
  endloop
endfacet
facet normal 0.0 0.0 -1.0
  outer loop
    vertex -23.97793332892943 -38.2953701960059 11.010000000000003
    vertex -23.52500000000002 -34.85500000000003 11.010000000000003
    vertex -23.52500000000002 -38.355000000000025 11.010000000000003
  endloop
endfacet
facet normal 0.0 0.0 -1.0
  outer loop
    vertex -23.52500000000002 -38.355000000000025 11.010000000000003
    vertex -23.52500000000002 -34.85500000000003 11.010000000000003
    vertex -23.07206667107061 -34.91462980399417 11.010000000000003
  endloop
endfacet
facet normal 0.0 0.0 -1.0
  outer loop
    vertex -23.52500000000002 -38.355000000000025 11.010000000000003
    vertex -23.07206667107061 -34.91462980399417 11.010000000000003
    vertex -23.07206667107061 -38.2953701960059 11.010000000000003
  endloop
endfacet
facet normal 0.0 0.0 -1.0
  outer loop
    vertex -23.07206667107061 -38.2953701960059 11.010000000000003
    vertex -23.07206667107061 -34.91462980399417 11.010000000000003
    vertex -22.65000000000002 -35.08945554337726 11.010000000000003
  endloop
endfacet
facet normal 0.0 0.0 -1.0
  outer loop
    vertex -23.07206667107061 -38.2953701960059 11.010000000000003
    vertex -22.65000000000002 -35.08945554337726 11.010000000000003
    vertex -22.650000000000016 -38.1205444566228 11.010000000000003
  endloop
endfacet
facet normal 0.0 0.0 -1.0
  outer loop
    vertex -22.650000000000016 -38.1205444566228 11.010000000000003
    vertex -22.65000000000002 -35.08945554337726 11.010000000000003
    vertex -22.28756313292356 -35.36756313292358 11.010000000000003
  endloop
endfacet
facet normal 0.0 0.0 -1.0
  outer loop
    vertex -22.650000000000016 -38.1205444566228 11.010000000000003
    vertex -22.28756313292356 -35.36756313292358 11.010000000000003
    vertex -22.28756313292356 -37.842436867076486 11.010000000000003
  endloop
endfacet
facet normal 0.0 0.0 -1.0
  outer loop
    vertex -22.28756313292356 -37.842436867076486 11.010000000000003
    vertex -22.28756313292356 -35.36756313292358 11.010000000000003
    vertex -22.009455543377253 -35.73000000000003 11.010000000000003
  endloop
endfacet
facet normal 0.0 0.0 -1.0
  outer loop
    vertex -22.28756313292356 -37.842436867076486 11.010000000000003
    vertex -22.009455543377253 -35.73000000000003 11.010000000000003
    vertex -22.009455543377253 -37.48000000000003 11.010000000000003
  endloop
endfacet
facet normal 0.0 0.0 -1.0
  outer loop
    vertex -22.009455543377253 -37.48000000000003 11.010000000000003
    vertex -22.009455543377253 -35.73000000000003 11.010000000000003
    vertex -21.83462980399415 -36.15206667107062 11.010000000000003
  endloop
endfacet
facet normal 0.0 0.0 -1.0
  outer loop
    vertex -22.009455543377253 -37.48000000000003 11.010000000000003
    vertex -21.83462980399415 -36.15206667107062 11.010000000000003
    vertex -21.83462980399415 -37.057933328929444 11.010000000000003
  endloop
endfacet
facet normal 0.0 0.0 -1.0
  outer loop
    vertex -21.83462980399415 -37.057933328929444 11.010000000000003
    vertex -21.83462980399415 -36.15206667107062 11.010000000000003
    vertex -21.77500000000002 -36.60500000000003 11.010000000000003
  endloop
endfacet
facet normal 1.2425329629208701e-31 4.141776543069561e-32 1.0
  outer loop
    vertex -27.38870330515629 -37.64027618041011 14.010000000000003
    vertex -27.38870330515629 -35.569723819589946 14.010000000000003
    vertex -27.525000000000016 -36.60500000000003 14.010000000000003
  endloop
endfacet
facet normal 1.2425329629208701e-31 4.141776543069561e-32 1.0
  outer loop
    vertex -27.38870330515629 -35.569723819589946 14.010000000000003
    vertex -27.38870330515629 -37.64027618041011 14.010000000000003
    vertex -26.989101615137777 -38.60500000000003 14.010000000000003
  endloop
endfacet
facet normal 1.2425329629208701e-31 4.141776543069561e-32 1.0
  outer loop
    vertex -27.38870330515629 -35.569723819589946 14.010000000000003
    vertex -26.989101615137777 -38.60500000000003 14.010000000000003
    vertex -26.98910161513777 -34.60500000000003 14.010000000000003
  endloop
endfacet
facet normal 1.2425329629208701e-31 4.141776543069561e-32 1.0
  outer loop
    vertex -26.98910161513777 -34.60500000000003 14.010000000000003
    vertex -26.989101615137777 -38.60500000000003 14.010000000000003
    vertex -26.35342712474621 -39.433427124746224 14.010000000000003
  endloop
endfacet
facet normal 1.2425329629208701e-31 4.141776543069561e-32 1.0
  outer loop
    vertex -26.98910161513777 -34.60500000000003 14.010000000000003
    vertex -26.35342712474621 -39.433427124746224 14.010000000000003
    vertex -26.353427124746204 -33.77657287525384 14.010000000000003
  endloop
endfacet
facet normal 1.2425329629208701e-31 4.141776543069561e-32 1.0
  outer loop
    vertex -26.353427124746204 -33.77657287525384 14.010000000000003
    vertex -26.35342712474621 -39.433427124746224 14.010000000000003
    vertex -25.525000000000016 -40.06910161513779 14.010000000000003
  endloop
endfacet
facet normal 1.2425329629208701e-31 4.141776543069561e-32 1.0
  outer loop
    vertex -26.353427124746204 -33.77657287525384 14.010000000000003
    vertex -25.525000000000016 -40.06910161513779 14.010000000000003
    vertex -25.525000000000016 -33.140898384862275 14.010000000000003
  endloop
endfacet
facet normal 1.2425329629208701e-31 4.141776543069561e-32 1.0
  outer loop
    vertex -25.525000000000016 -33.140898384862275 14.010000000000003
    vertex -25.525000000000016 -40.06910161513779 14.010000000000003
    vertex -24.560276180410103 -40.4687033051563 14.010000000000003
  endloop
endfacet
facet normal 1.2425329629208701e-31 4.141776543069561e-32 1.0
  outer loop
    vertex -25.525000000000016 -33.140898384862275 14.010000000000003
    vertex -24.560276180410103 -40.4687033051563 14.010000000000003
    vertex -24.560276180410103 -32.74129669484376 14.010000000000003
  endloop
endfacet
facet normal 1.2425329629208701e-31 4.141776543069561e-32 1.0
  outer loop
    vertex -24.560276180410103 -32.74129669484376 14.010000000000003
    vertex -24.560276180410103 -40.4687033051563 14.010000000000003
    vertex -23.52500000000002 -40.60500000000003 14.010000000000003
  endloop
endfacet
facet normal 1.2425329629208701e-31 4.141776543069561e-32 1.0
  outer loop
    vertex -24.560276180410103 -32.74129669484376 14.010000000000003
    vertex -23.52500000000002 -40.60500000000003 14.010000000000003
    vertex -23.52500000000002 -32.60500000000003 14.010000000000003
  endloop
endfacet
facet normal 1.2425329629208701e-31 4.141776543069561e-32 1.0
  outer loop
    vertex -23.52500000000002 -32.60500000000003 14.010000000000003
    vertex -23.52500000000002 -40.60500000000003 14.010000000000003
    vertex -22.489723819589937 -40.4687033051563 14.010000000000003
  endloop
endfacet
facet normal 1.2425329629208701e-31 4.141776543069561e-32 1.0
  outer loop
    vertex -23.52500000000002 -32.60500000000003 14.010000000000003
    vertex -22.489723819589937 -40.4687033051563 14.010000000000003
    vertex -22.48972381958994 -32.74129669484376 14.010000000000003
  endloop
endfacet
facet normal 1.2425329629208701e-31 4.141776543069561e-32 1.0
  outer loop
    vertex -22.48972381958994 -32.74129669484376 14.010000000000003
    vertex -22.489723819589937 -40.4687033051563 14.010000000000003
    vertex -21.525000000000023 -33.140898384862275 14.010000000000003
  endloop
endfacet
facet normal 1.2425329629208701e-31 4.141776543069561e-32 1.0
  outer loop
    vertex -21.525000000000023 -33.140898384862275 14.010000000000003
    vertex -22.489723819589937 -40.4687033051563 14.010000000000003
    vertex -21.52500000000002 -40.06910161513779 14.010000000000003
  endloop
endfacet
facet normal 1.2425329629208701e-31 4.141776543069561e-32 1.0
  outer loop
    vertex -21.525000000000023 -33.140898384862275 14.010000000000003
    vertex -21.52500000000002 -40.06910161513779 14.010000000000003
    vertex -20.696572875253832 -33.77657287525384 14.010000000000003
  endloop
endfacet
facet normal 1.2425329629208701e-31 4.141776543069561e-32 1.0
  outer loop
    vertex -20.696572875253832 -33.77657287525384 14.010000000000003
    vertex -21.52500000000002 -40.06910161513779 14.010000000000003
    vertex -20.69657287525383 -39.433427124746224 14.010000000000003
  endloop
endfacet
facet normal 1.2425329629208701e-31 4.141776543069561e-32 1.0
  outer loop
    vertex -20.696572875253832 -33.77657287525384 14.010000000000003
    vertex -20.69657287525383 -39.433427124746224 14.010000000000003
    vertex -20.060898384862266 -34.605000000000025 14.010000000000003
  endloop
endfacet
facet normal 1.2425329629208701e-31 4.141776543069561e-32 1.0
  outer loop
    vertex -20.060898384862266 -34.605000000000025 14.010000000000003
    vertex -20.69657287525383 -39.433427124746224 14.010000000000003
    vertex -20.060898384862266 -38.60500000000003 14.010000000000003
  endloop
endfacet
facet normal 1.2425329629208701e-31 4.141776543069561e-32 1.0
  outer loop
    vertex -20.060898384862266 -34.605000000000025 14.010000000000003
    vertex -20.060898384862266 -38.60500000000003 14.010000000000003
    vertex -19.66129669484375 -35.56972381958994 14.010000000000003
  endloop
endfacet
facet normal 1.2425329629208701e-31 4.141776543069561e-32 1.0
  outer loop
    vertex -19.66129669484375 -35.56972381958994 14.010000000000003
    vertex -20.060898384862266 -38.60500000000003 14.010000000000003
    vertex -19.66129669484375 -37.64027618041012 14.010000000000003
  endloop
endfacet
facet normal 1.2425329629208701e-31 4.141776543069561e-32 1.0
  outer loop
    vertex -19.66129669484375 -35.56972381958994 14.010000000000003
    vertex -19.66129669484375 -37.64027618041012 14.010000000000003
    vertex -19.52500000000002 -36.605000000000025 14.010000000000003
  endloop
endfacet
facet normal -0.6087614290087188 -0.7933533402912367 1.0849953676165591e-31
  outer loop
    vertex -25.525000000000016 -40.06910161513779 14.010000000000003
    vertex -26.35342712474621 -39.433427124746224 10.010000000000003
    vertex -25.525000000000016 -40.06910161513779 10.010000000000003
  endloop
endfacet
facet normal -0.6087614290087188 -0.7933533402912367 1.0849953676165591e-31
  outer loop
    vertex -26.35342712474621 -39.433427124746224 10.010000000000003
    vertex -25.525000000000016 -40.06910161513779 14.010000000000003
    vertex -26.35342712474621 -39.433427124746224 14.010000000000003
  endloop
endfacet
facet normal -0.3826834323650877 -0.9238795325112876 8.58147036715053e-32
  outer loop
    vertex -24.560276180410103 -40.4687033051563 14.010000000000003
    vertex -25.525000000000016 -40.06910161513779 10.010000000000003
    vertex -24.560276180410103 -40.4687033051563 10.010000000000003
  endloop
endfacet
facet normal -0.3826834323650877 -0.9238795325112876 8.58147036715053e-32
  outer loop
    vertex -25.525000000000016 -40.06910161513779 10.010000000000003
    vertex -24.560276180410103 -40.4687033051563 14.010000000000003
    vertex -25.525000000000016 -40.06910161513779 14.010000000000003
  endloop
endfacet
facet normal 0.7933533402912359 -0.6087614290087197 -7.336322958558566e-32
  outer loop
    vertex -20.060898384862266 -38.60500000000003 10.010000000000003
    vertex -20.69657287525383 -39.433427124746224 14.010000000000003
    vertex -20.69657287525383 -39.433427124746224 10.010000000000003
  endloop
endfacet
facet normal 0.7933533402912359 -0.6087614290087197 -7.336322958558566e-32
  outer loop
    vertex -20.69657287525383 -39.433427124746224 14.010000000000003
    vertex -20.060898384862266 -38.60500000000003 10.010000000000003
    vertex -20.060898384862266 -38.60500000000003 14.010000000000003
  endloop
endfacet
facet normal 0.9914448613738106 -0.13052619222005077 -1.1778418890561527e-31
  outer loop
    vertex -19.52500000000002 -36.605000000000025 10.010000000000003
    vertex -19.66129669484375 -37.64027618041012 14.010000000000003
    vertex -19.66129669484375 -37.64027618041012 10.010000000000003
  endloop
endfacet
facet normal 0.9914448613738106 -0.13052619222005077 -1.1778418890561527e-31
  outer loop
    vertex -19.66129669484375 -37.64027618041012 14.010000000000003
    vertex -19.52500000000002 -36.605000000000025 10.010000000000003
    vertex -19.52500000000002 -36.605000000000025 14.010000000000003
  endloop
endfacet
facet normal 0.9914448613738105 0.13052619222005143 -1.285963953294792e-31
  outer loop
    vertex -19.66129669484375 -35.56972381958994 10.010000000000003
    vertex -19.52500000000002 -36.605000000000025 14.010000000000003
    vertex -19.52500000000002 -36.605000000000025 10.010000000000003
  endloop
endfacet
facet normal 0.9914448613738105 0.13052619222005143 -1.285963953294792e-31
  outer loop
    vertex -19.52500000000002 -36.605000000000025 14.010000000000003
    vertex -19.66129669484375 -35.56972381958994 10.010000000000003
    vertex -19.66129669484375 -35.56972381958994 14.010000000000003
  endloop
endfacet
facet normal 0.6087614290087201 -0.7933533402912358 -4.278169165797356e-32
  outer loop
    vertex -20.69657287525383 -39.433427124746224 14.010000000000003
    vertex -21.52500000000002 -40.06910161513779 10.010000000000003
    vertex -20.69657287525383 -39.433427124746224 10.010000000000003
  endloop
endfacet
facet normal 0.6087614290087201 -0.7933533402912358 -4.278169165797356e-32
  outer loop
    vertex -21.52500000000002 -40.06910161513779 10.010000000000003
    vertex -20.69657287525383 -39.433427124746224 14.010000000000003
    vertex -21.52500000000002 -40.06910161513779 14.010000000000003
  endloop
endfacet
facet normal 0.9238795325112871 -0.38268343236508895 -9.894518465540905e-32
  outer loop
    vertex -19.66129669484375 -37.64027618041012 10.010000000000003
    vertex -20.060898384862266 -38.60500000000003 14.010000000000003
    vertex -20.060898384862266 -38.60500000000003 10.010000000000003
  endloop
endfacet
facet normal 0.9238795325112871 -0.38268343236508895 -9.894518465540905e-32
  outer loop
    vertex -20.060898384862266 -38.60500000000003 14.010000000000003
    vertex -19.66129669484375 -37.64027618041012 10.010000000000003
    vertex -19.66129669484375 -37.64027618041012 14.010000000000003
  endloop
endfacet
facet normal 0.7933533402912326 0.6087614290087239 -1.2379030572546184e-31
  outer loop
    vertex -20.696572875253832 -33.77657287525384 10.010000000000003
    vertex -20.060898384862266 -34.605000000000025 14.010000000000003
    vertex -20.060898384862266 -34.605000000000025 10.010000000000003
  endloop
endfacet
facet normal 0.7933533402912326 0.6087614290087239 -1.2379030572546184e-31
  outer loop
    vertex -20.060898384862266 -34.605000000000025 14.010000000000003
    vertex -20.696572875253832 -33.77657287525384 10.010000000000003
    vertex -20.696572875253832 -33.77657287525384 14.010000000000003
  endloop
endfacet
facet normal 0.13052619222005216 0.9914448613738104 -5.728174034164505e-32
  outer loop
    vertex -23.52500000000002 -32.60500000000003 14.010000000000003
    vertex -22.48972381958994 -32.74129669484376 10.010000000000003
    vertex -23.52500000000002 -32.60500000000003 10.010000000000003
  endloop
endfacet
facet normal 0.13052619222005216 0.9914448613738104 -5.728174034164505e-32
  outer loop
    vertex -22.48972381958994 -32.74129669484376 10.010000000000003
    vertex -23.52500000000002 -32.60500000000003 14.010000000000003
    vertex -22.48972381958994 -32.74129669484376 14.010000000000003
  endloop
endfacet
facet normal 0.9238795325112863 0.3826834323650914 -1.3064496992723048e-31
  outer loop
    vertex -20.060898384862266 -34.605000000000025 10.010000000000003
    vertex -19.66129669484375 -35.56972381958994 14.010000000000003
    vertex -19.66129669484375 -35.56972381958994 10.010000000000003
  endloop
endfacet
facet normal 0.9238795325112863 0.3826834323650914 -1.3064496992723048e-31
  outer loop
    vertex -19.66129669484375 -35.56972381958994 14.010000000000003
    vertex -20.060898384862266 -34.605000000000025 10.010000000000003
    vertex -20.060898384862266 -34.605000000000025 14.010000000000003
  endloop
endfacet
facet normal -0.6087614290087213 0.7933533402912347 4.278169165797376e-32
  outer loop
    vertex -26.353427124746204 -33.77657287525384 14.010000000000003
    vertex -25.525000000000016 -33.140898384862275 10.010000000000003
    vertex -26.353427124746204 -33.77657287525384 10.010000000000003
  endloop
endfacet
facet normal -0.6087614290087213 0.7933533402912347 4.278169165797376e-32
  outer loop
    vertex -25.525000000000016 -33.140898384862275 10.010000000000003
    vertex -26.353427124746204 -33.77657287525384 14.010000000000003
    vertex -25.525000000000016 -33.140898384862275 14.010000000000003
  endloop
endfacet
facet normal 0.6087614290087213 0.7933533402912347 -1.0849953676165613e-31
  outer loop
    vertex -21.525000000000023 -33.140898384862275 14.010000000000003
    vertex -20.696572875253832 -33.77657287525384 10.010000000000003
    vertex -21.525000000000023 -33.140898384862275 10.010000000000003
  endloop
endfacet
facet normal 0.6087614290087213 0.7933533402912347 -1.0849953676165613e-31
  outer loop
    vertex -20.696572875253832 -33.77657287525384 10.010000000000003
    vertex -21.525000000000023 -33.140898384862275 14.010000000000003
    vertex -20.696572875253832 -33.77657287525384 14.010000000000003
  endloop
endfacet
facet normal -0.3826834323650877 0.9238795325112876 9.284652143958844e-33
  outer loop
    vertex -25.525000000000016 -33.140898384862275 14.010000000000003
    vertex -24.560276180410103 -32.74129669484376 10.010000000000003
    vertex -25.525000000000016 -33.140898384862275 10.010000000000003
  endloop
endfacet
facet normal -0.3826834323650877 0.9238795325112876 9.284652143958844e-33
  outer loop
    vertex -24.560276180410103 -32.74129669484376 10.010000000000003
    vertex -25.525000000000016 -33.140898384862275 14.010000000000003
    vertex -24.560276180410103 -32.74129669484376 14.010000000000003
  endloop
endfacet
facet normal 0.3826834323650867 0.9238795325112881 -8.581470367150521e-32
  outer loop
    vertex -22.48972381958994 -32.74129669484376 14.010000000000003
    vertex -21.525000000000023 -33.140898384862275 10.010000000000003
    vertex -22.48972381958994 -32.74129669484376 10.010000000000003
  endloop
endfacet
facet normal 0.3826834323650867 0.9238795325112881 -8.581470367150521e-32
  outer loop
    vertex -21.525000000000023 -33.140898384862275 10.010000000000003
    vertex -22.48972381958994 -32.74129669484376 14.010000000000003
    vertex -21.525000000000023 -33.140898384862275 14.010000000000003
  endloop
endfacet
facet normal -0.1305261922200518 0.9914448613738104 -2.4845121070053007e-32
  outer loop
    vertex -24.560276180410103 -32.74129669484376 14.010000000000003
    vertex -23.52500000000002 -32.60500000000003 10.010000000000003
    vertex -24.560276180410103 -32.74129669484376 10.010000000000003
  endloop
endfacet
facet normal -0.1305261922200518 0.9914448613738104 -2.4845121070053007e-32
  outer loop
    vertex -23.52500000000002 -32.60500000000003 10.010000000000003
    vertex -24.560276180410103 -32.74129669484376 14.010000000000003
    vertex -23.52500000000002 -32.60500000000003 14.010000000000003
  endloop
endfacet
facet normal 0.1305261922200518 -0.9914448613738104 2.4845121070053007e-32
  outer loop
    vertex -22.489723819589937 -40.4687033051563 14.010000000000003
    vertex -23.52500000000002 -40.60500000000003 10.010000000000003
    vertex -22.489723819589937 -40.4687033051563 10.010000000000003
  endloop
endfacet
facet normal 0.1305261922200518 -0.9914448613738104 2.4845121070053007e-32
  outer loop
    vertex -23.52500000000002 -40.60500000000003 10.010000000000003
    vertex -22.489723819589937 -40.4687033051563 14.010000000000003
    vertex -23.52500000000002 -40.60500000000003 14.010000000000003
  endloop
endfacet
facet normal 0.3826834323650867 -0.9238795325112881 -9.284652143958704e-33
  outer loop
    vertex -21.52500000000002 -40.06910161513779 14.010000000000003
    vertex -22.489723819589937 -40.4687033051563 10.010000000000003
    vertex -21.52500000000002 -40.06910161513779 10.010000000000003
  endloop
endfacet
facet normal 0.3826834323650867 -0.9238795325112881 -9.284652143958704e-33
  outer loop
    vertex -22.489723819589937 -40.4687033051563 10.010000000000003
    vertex -21.52500000000002 -40.06910161513779 14.010000000000003
    vertex -22.489723819589937 -40.4687033051563 14.010000000000003
  endloop
endfacet
facet normal -0.1305261922200518 -0.9914448613738104 5.7281740341645e-32
  outer loop
    vertex -23.52500000000002 -40.60500000000003 14.010000000000003
    vertex -24.560276180410103 -40.4687033051563 10.010000000000003
    vertex -23.52500000000002 -40.60500000000003 10.010000000000003
  endloop
endfacet
facet normal -0.1305261922200518 -0.9914448613738104 5.7281740341645e-32
  outer loop
    vertex -24.560276180410103 -40.4687033051563 10.010000000000003
    vertex -23.52500000000002 -40.60500000000003 14.010000000000003
    vertex -24.560276180410103 -40.4687033051563 14.010000000000003
  endloop
endfacet
facet normal -0.9238795325112871 0.38268343236508895 9.894518465540908e-32
  outer loop
    vertex -21.83462980399415 -37.057933328929444 11.010000000000003
    vertex -22.009455543377253 -37.48000000000003 8.010000000000003
    vertex -22.009455543377253 -37.48000000000003 11.010000000000003
  endloop
endfacet
facet normal -0.9238795325112871 0.38268343236508895 9.894518465540908e-32
  outer loop
    vertex -22.009455543377253 -37.48000000000003 8.010000000000003
    vertex -21.83462980399415 -37.057933328929444 11.010000000000003
    vertex -21.83462980399415 -37.057933328929444 8.010000000000003
  endloop
endfacet
facet normal -0.7933533402912353 0.6087614290087207 7.336322958558553e-32
  outer loop
    vertex -22.009455543377253 -37.48000000000003 11.010000000000003
    vertex -22.28756313292356 -37.842436867076486 8.010000000000003
    vertex -22.28756313292356 -37.842436867076486 11.010000000000003
  endloop
endfacet
facet normal -0.7933533402912353 0.6087614290087207 7.336322958558553e-32
  outer loop
    vertex -22.28756313292356 -37.842436867076486 8.010000000000003
    vertex -22.009455543377253 -37.48000000000003 11.010000000000003
    vertex -22.009455543377253 -37.48000000000003 8.010000000000003
  endloop
endfacet
facet normal -0.9914448613738102 0.1305261922200546 1.1778418890561507e-31
  outer loop
    vertex -21.77500000000002 -36.60500000000003 11.010000000000003
    vertex -21.83462980399415 -37.057933328929444 8.010000000000003
    vertex -21.83462980399415 -37.057933328929444 11.010000000000003
  endloop
endfacet
facet normal -0.9914448613738102 0.1305261922200546 1.1778418890561507e-31
  outer loop
    vertex -21.83462980399415 -37.057933328929444 8.010000000000003
    vertex -21.77500000000002 -36.60500000000003 11.010000000000003
    vertex -21.77500000000002 -36.60500000000003 8.010000000000003
  endloop
endfacet
facet normal -0.6087614290087284 0.7933533402912294 4.2781691657974865e-32
  outer loop
    vertex -22.650000000000016 -38.1205444566228 11.010000000000003
    vertex -22.28756313292356 -37.842436867076486 8.010000000000003
    vertex -22.650000000000016 -38.1205444566228 8.010000000000003
  endloop
endfacet
facet normal -0.6087614290087284 0.7933533402912294 4.2781691657974865e-32
  outer loop
    vertex -22.28756313292356 -37.842436867076486 8.010000000000003
    vertex -22.650000000000016 -38.1205444566228 11.010000000000003
    vertex -22.28756313292356 -37.842436867076486 11.010000000000003
  endloop
endfacet
facet normal -0.3826834323650815 0.9238795325112902 9.284652143957981e-33
  outer loop
    vertex -23.07206667107061 -38.2953701960059 11.010000000000003
    vertex -22.650000000000016 -38.1205444566228 8.010000000000003
    vertex -23.07206667107061 -38.2953701960059 8.010000000000003
  endloop
endfacet
facet normal -0.3826834323650815 0.9238795325112902 9.284652143957981e-33
  outer loop
    vertex -22.650000000000016 -38.1205444566228 8.010000000000003
    vertex -23.07206667107061 -38.2953701960059 11.010000000000003
    vertex -22.650000000000016 -38.1205444566228 11.010000000000003
  endloop
endfacet
facet normal -0.13052619222004852 0.9914448613738108 -2.4845121070053434e-32
  outer loop
    vertex -23.52500000000002 -38.355000000000025 11.010000000000003
    vertex -23.07206667107061 -38.2953701960059 8.010000000000003
    vertex -23.52500000000002 -38.355000000000025 8.010000000000003
  endloop
endfacet
facet normal -0.13052619222004852 0.9914448613738108 -2.4845121070053434e-32
  outer loop
    vertex -23.07206667107061 -38.2953701960059 8.010000000000003
    vertex -23.52500000000002 -38.355000000000025 11.010000000000003
    vertex -23.07206667107061 -38.2953701960059 11.010000000000003
  endloop
endfacet
facet normal 0.13052619222004852 0.9914448613738108 -5.728174034164462e-32
  outer loop
    vertex -23.97793332892943 -38.2953701960059 11.010000000000003
    vertex -23.52500000000002 -38.355000000000025 8.010000000000003
    vertex -23.97793332892943 -38.2953701960059 8.010000000000003
  endloop
endfacet
facet normal 0.13052619222004852 0.9914448613738108 -5.728174034164462e-32
  outer loop
    vertex -23.52500000000002 -38.355000000000025 8.010000000000003
    vertex -23.97793332892943 -38.2953701960059 11.010000000000003
    vertex -23.52500000000002 -38.355000000000025 11.010000000000003
  endloop
endfacet
facet normal 0.38268343236508373 0.9238795325112893 -8.581470367150489e-32
  outer loop
    vertex -24.400000000000016 -38.1205444566228 11.010000000000003
    vertex -23.97793332892943 -38.2953701960059 8.010000000000003
    vertex -24.400000000000016 -38.1205444566228 8.010000000000003
  endloop
endfacet
facet normal 0.38268343236508373 0.9238795325112893 -8.581470367150489e-32
  outer loop
    vertex -23.97793332892943 -38.2953701960059 8.010000000000003
    vertex -24.400000000000016 -38.1205444566228 11.010000000000003
    vertex -23.97793332892943 -38.2953701960059 11.010000000000003
  endloop
endfacet
facet normal 0.6087614290087254 0.7933533402912315 -1.0849953676165653e-31
  outer loop
    vertex -24.762436867076477 -37.842436867076486 11.010000000000003
    vertex -24.400000000000016 -38.1205444566228 8.010000000000003
    vertex -24.762436867076477 -37.842436867076486 8.010000000000003
  endloop
endfacet
facet normal 0.6087614290087254 0.7933533402912315 -1.0849953676165653e-31
  outer loop
    vertex -24.400000000000016 -38.1205444566228 8.010000000000003
    vertex -24.762436867076477 -37.842436867076486 11.010000000000003
    vertex -24.400000000000016 -38.1205444566228 11.010000000000003
  endloop
endfacet
facet normal 0.7933533402912353 0.6087614290087207 -1.2379030572546206e-31
  outer loop
    vertex -25.040544456622786 -37.48000000000003 8.010000000000003
    vertex -24.762436867076477 -37.842436867076486 11.010000000000003
    vertex -24.762436867076477 -37.842436867076486 8.010000000000003
  endloop
endfacet
facet normal 0.7933533402912353 0.6087614290087207 -1.2379030572546206e-31
  outer loop
    vertex -24.762436867076477 -37.842436867076486 11.010000000000003
    vertex -25.040544456622786 -37.48000000000003 8.010000000000003
    vertex -25.040544456622786 -37.48000000000003 11.010000000000003
  endloop
endfacet
facet normal 0.9238795325112871 0.38268343236508895 -1.306449699272305e-31
  outer loop
    vertex -25.215370196005885 -37.057933328929444 8.010000000000003
    vertex -25.040544456622786 -37.48000000000003 11.010000000000003
    vertex -25.040544456622786 -37.48000000000003 8.010000000000003
  endloop
endfacet
facet normal 0.9238795325112871 0.38268343236508895 -1.306449699272305e-31
  outer loop
    vertex -25.040544456622786 -37.48000000000003 11.010000000000003
    vertex -25.215370196005885 -37.057933328929444 8.010000000000003
    vertex -25.215370196005885 -37.057933328929444 11.010000000000003
  endloop
endfacet
facet normal 0.9914448613738102 0.1305261922200546 -1.2859639532947926e-31
  outer loop
    vertex -25.27500000000002 -36.60500000000003 8.010000000000003
    vertex -25.215370196005885 -37.057933328929444 11.010000000000003
    vertex -25.215370196005885 -37.057933328929444 8.010000000000003
  endloop
endfacet
facet normal 0.9914448613738102 0.1305261922200546 -1.2859639532947926e-31
  outer loop
    vertex -25.215370196005885 -37.057933328929444 11.010000000000003
    vertex -25.27500000000002 -36.60500000000003 8.010000000000003
    vertex -25.27500000000002 -36.60500000000003 11.010000000000003
  endloop
endfacet
facet normal 0.9914448613738108 -0.13052619222004852 -1.177841889056154e-31
  outer loop
    vertex -25.21537019600589 -36.15206667107062 8.010000000000003
    vertex -25.27500000000002 -36.60500000000003 11.010000000000003
    vertex -25.27500000000002 -36.60500000000003 8.010000000000003
  endloop
endfacet
facet normal 0.9914448613738108 -0.13052619222004852 -1.177841889056154e-31
  outer loop
    vertex -25.27500000000002 -36.60500000000003 11.010000000000003
    vertex -25.21537019600589 -36.15206667107062 8.010000000000003
    vertex -25.21537019600589 -36.15206667107062 11.010000000000003
  endloop
endfacet
facet normal 0.923879532511285 -0.38268343236509433 -9.89451846554086e-32
  outer loop
    vertex -25.040544456622786 -35.73000000000003 8.010000000000003
    vertex -25.21537019600589 -36.15206667107062 11.010000000000003
    vertex -25.21537019600589 -36.15206667107062 8.010000000000003
  endloop
endfacet
facet normal 0.923879532511285 -0.38268343236509433 -9.89451846554086e-32
  outer loop
    vertex -25.21537019600589 -36.15206667107062 11.010000000000003
    vertex -25.040544456622786 -35.73000000000003 8.010000000000003
    vertex -25.040544456622786 -35.73000000000003 11.010000000000003
  endloop
endfacet
facet normal 0.7933533402912353 -0.6087614290087207 -7.336322958558553e-32
  outer loop
    vertex -24.762436867076477 -35.36756313292358 8.010000000000003
    vertex -25.040544456622786 -35.73000000000003 11.010000000000003
    vertex -25.040544456622786 -35.73000000000003 8.010000000000003
  endloop
endfacet
facet normal 0.7933533402912353 -0.6087614290087207 -7.336322958558553e-32
  outer loop
    vertex -25.040544456622786 -35.73000000000003 11.010000000000003
    vertex -24.762436867076477 -35.36756313292358 8.010000000000003
    vertex -24.762436867076477 -35.36756313292358 11.010000000000003
  endloop
endfacet
facet normal 0.6087614290087207 -0.7933533402912353 -4.2781691657973644e-32
  outer loop
    vertex -24.40000000000002 -35.08945554337727 11.010000000000003
    vertex -24.762436867076477 -35.36756313292358 8.010000000000003
    vertex -24.40000000000002 -35.08945554337727 8.010000000000003
  endloop
endfacet
facet normal 0.6087614290087207 -0.7933533402912353 -4.2781691657973644e-32
  outer loop
    vertex -24.762436867076477 -35.36756313292358 8.010000000000003
    vertex -24.40000000000002 -35.08945554337727 11.010000000000003
    vertex -24.762436867076477 -35.36756313292358 11.010000000000003
  endloop
endfacet
facet normal 0.3826834323650921 -0.9238795325112859 -9.28465214395947e-33
  outer loop
    vertex -23.97793332892943 -34.91462980399417 11.010000000000003
    vertex -24.40000000000002 -35.08945554337727 8.010000000000003
    vertex -23.97793332892943 -34.91462980399417 8.010000000000003
  endloop
endfacet
facet normal 0.3826834323650921 -0.9238795325112859 -9.28465214395947e-33
  outer loop
    vertex -24.40000000000002 -35.08945554337727 8.010000000000003
    vertex -23.97793332892943 -34.91462980399417 11.010000000000003
    vertex -24.40000000000002 -35.08945554337727 11.010000000000003
  endloop
endfacet
facet normal 0.13052619222004852 -0.9914448613738108 2.4845121070053434e-32
  outer loop
    vertex -23.52500000000002 -34.85500000000003 11.010000000000003
    vertex -23.97793332892943 -34.91462980399417 8.010000000000003
    vertex -23.52500000000002 -34.85500000000003 8.010000000000003
  endloop
endfacet
facet normal 0.13052619222004852 -0.9914448613738108 2.4845121070053434e-32
  outer loop
    vertex -23.97793332892943 -34.91462980399417 8.010000000000003
    vertex -23.52500000000002 -34.85500000000003 11.010000000000003
    vertex -23.97793332892943 -34.91462980399417 11.010000000000003
  endloop
endfacet
facet normal -0.1305261922200493 -0.9914448613738107 5.728174034164471e-32
  outer loop
    vertex -23.07206667107061 -34.91462980399417 11.010000000000003
    vertex -23.52500000000002 -34.85500000000003 8.010000000000003
    vertex -23.07206667107061 -34.91462980399417 8.010000000000003
  endloop
endfacet
facet normal -0.1305261922200493 -0.9914448613738107 5.728174034164471e-32
  outer loop
    vertex -23.52500000000002 -34.85500000000003 8.010000000000003
    vertex -23.07206667107061 -34.91462980399417 11.010000000000003
    vertex -23.52500000000002 -34.85500000000003 11.010000000000003
  endloop
endfacet
facet normal -0.3826834323650815 -0.9238795325112902 8.581470367150466e-32
  outer loop
    vertex -22.65000000000002 -35.08945554337726 11.010000000000003
    vertex -23.07206667107061 -34.91462980399417 8.010000000000003
    vertex -22.65000000000002 -35.08945554337726 8.010000000000003
  endloop
endfacet
facet normal -0.3826834323650815 -0.9238795325112902 8.581470367150466e-32
  outer loop
    vertex -23.07206667107061 -34.91462980399417 8.010000000000003
    vertex -22.65000000000002 -35.08945554337726 11.010000000000003
    vertex -23.07206667107061 -34.91462980399417 11.010000000000003
  endloop
endfacet
facet normal -0.6087614290087254 -0.7933533402912315 1.0849953676165653e-31
  outer loop
    vertex -22.28756313292356 -35.36756313292358 11.010000000000003
    vertex -22.65000000000002 -35.08945554337726 8.010000000000003
    vertex -22.28756313292356 -35.36756313292358 8.010000000000003
  endloop
endfacet
facet normal -0.6087614290087254 -0.7933533402912315 1.0849953676165653e-31
  outer loop
    vertex -22.65000000000002 -35.08945554337726 8.010000000000003
    vertex -22.28756313292356 -35.36756313292358 11.010000000000003
    vertex -22.65000000000002 -35.08945554337726 11.010000000000003
  endloop
endfacet
facet normal -0.7933533402912353 -0.6087614290087207 1.2379030572546206e-31
  outer loop
    vertex -22.28756313292356 -35.36756313292358 11.010000000000003
    vertex -22.009455543377253 -35.73000000000003 8.010000000000003
    vertex -22.009455543377253 -35.73000000000003 11.010000000000003
  endloop
endfacet
facet normal -0.7933533402912353 -0.6087614290087207 1.2379030572546206e-31
  outer loop
    vertex -22.009455543377253 -35.73000000000003 8.010000000000003
    vertex -22.28756313292356 -35.36756313292358 11.010000000000003
    vertex -22.28756313292356 -35.36756313292358 8.010000000000003
  endloop
endfacet
facet normal -0.9238795325112871 -0.38268343236508895 1.306449699272305e-31
  outer loop
    vertex -22.009455543377253 -35.73000000000003 11.010000000000003
    vertex -21.83462980399415 -36.15206667107062 8.010000000000003
    vertex -21.83462980399415 -36.15206667107062 11.010000000000003
  endloop
endfacet
facet normal -0.9238795325112871 -0.38268343236508895 1.306449699272305e-31
  outer loop
    vertex -21.83462980399415 -36.15206667107062 8.010000000000003
    vertex -22.009455543377253 -35.73000000000003 11.010000000000003
    vertex -22.009455543377253 -35.73000000000003 8.010000000000003
  endloop
endfacet
facet normal -0.9914448613738102 -0.1305261922200546 1.2859639532947926e-31
  outer loop
    vertex -21.83462980399415 -36.15206667107062 11.010000000000003
    vertex -21.77500000000002 -36.60500000000003 8.010000000000003
    vertex -21.77500000000002 -36.60500000000003 11.010000000000003
  endloop
endfacet
facet normal -0.9914448613738102 -0.1305261922200546 1.2859639532947926e-31
  outer loop
    vertex -21.77500000000002 -36.60500000000003 8.010000000000003
    vertex -21.83462980399415 -36.15206667107062 11.010000000000003
    vertex -21.83462980399415 -36.15206667107062 8.010000000000003
  endloop
endfacet
facet normal -0.7933533402912347 0.6087614290087213 7.336322958558543e-32
  outer loop
    vertex -26.353427124746204 -33.77657287525384 14.010000000000003
    vertex -26.98910161513777 -34.60500000000003 10.010000000000003
    vertex -26.98910161513777 -34.60500000000003 14.010000000000003
  endloop
endfacet
facet normal -0.7933533402912347 0.6087614290087213 7.336322958558543e-32
  outer loop
    vertex -26.98910161513777 -34.60500000000003 10.010000000000003
    vertex -26.353427124746204 -33.77657287525384 14.010000000000003
    vertex -26.353427124746204 -33.77657287525384 10.010000000000003
  endloop
endfacet
facet normal -0.9238795325112863 0.3826834323650914 9.894518465540886e-32
  outer loop
    vertex -26.98910161513777 -34.60500000000003 14.010000000000003
    vertex -27.38870330515629 -35.569723819589946 10.010000000000003
    vertex -27.38870330515629 -35.569723819589946 14.010000000000003
  endloop
endfacet
facet normal -0.9238795325112863 0.3826834323650914 9.894518465540886e-32
  outer loop
    vertex -27.38870330515629 -35.569723819589946 10.010000000000003
    vertex -26.98910161513777 -34.60500000000003 14.010000000000003
    vertex -26.98910161513777 -34.60500000000003 10.010000000000003
  endloop
endfacet
facet normal -0.9914448613738105 0.13052619222005143 1.177841889056152e-31
  outer loop
    vertex -27.38870330515629 -35.569723819589946 14.010000000000003
    vertex -27.525000000000016 -36.60500000000003 10.010000000000003
    vertex -27.525000000000016 -36.60500000000003 14.010000000000003
  endloop
endfacet
facet normal -0.9914448613738105 0.13052619222005143 1.177841889056152e-31
  outer loop
    vertex -27.525000000000016 -36.60500000000003 10.010000000000003
    vertex -27.38870330515629 -35.569723819589946 14.010000000000003
    vertex -27.38870330515629 -35.569723819589946 10.010000000000003
  endloop
endfacet
facet normal -0.9914448613738104 -0.13052619222005216 1.2859639532947922e-31
  outer loop
    vertex -27.525000000000016 -36.60500000000003 14.010000000000003
    vertex -27.38870330515629 -37.64027618041011 10.010000000000003
    vertex -27.38870330515629 -37.64027618041011 14.010000000000003
  endloop
endfacet
facet normal -0.9914448613738104 -0.13052619222005216 1.2859639532947922e-31
  outer loop
    vertex -27.38870330515629 -37.64027618041011 10.010000000000003
    vertex -27.525000000000016 -36.60500000000003 14.010000000000003
    vertex -27.525000000000016 -36.60500000000003 10.010000000000003
  endloop
endfacet
facet normal -0.9238795325112888 -0.3826834323650848 1.3064496992723057e-31
  outer loop
    vertex -27.38870330515629 -37.64027618041011 14.010000000000003
    vertex -26.989101615137777 -38.60500000000003 10.010000000000003
    vertex -26.989101615137777 -38.60500000000003 14.010000000000003
  endloop
endfacet
facet normal -0.9238795325112888 -0.3826834323650848 1.3064496992723057e-31
  outer loop
    vertex -26.989101615137777 -38.60500000000003 10.010000000000003
    vertex -27.38870330515629 -37.64027618041011 14.010000000000003
    vertex -27.38870330515629 -37.64027618041011 10.010000000000003
  endloop
endfacet
facet normal -0.7933533402912347 -0.6087614290087213 1.23790305725462e-31
  outer loop
    vertex -26.989101615137777 -38.60500000000003 14.010000000000003
    vertex -26.35342712474621 -39.433427124746224 10.010000000000003
    vertex -26.35342712474621 -39.433427124746224 14.010000000000003
  endloop
endfacet
facet normal -0.7933533402912347 -0.6087614290087213 1.23790305725462e-31
  outer loop
    vertex -26.35342712474621 -39.433427124746224 10.010000000000003
    vertex -26.989101615137777 -38.60500000000003 14.010000000000003
    vertex -26.989101615137777 -38.60500000000003 10.010000000000003
  endloop
endfacet
facet normal 0.0 0.0 -1.0
  outer loop
    vertex -25.207323793166402 -30.32648212912109 8.010000000000003
    vertex -25.27500000000002 -36.60500000000003 8.010000000000003
    vertex -26.77500000000002 -30.97583487540118 8.010000000000003
  endloop
endfacet
facet normal 0.0 0.0 -1.0
  outer loop
    vertex -25.27500000000002 -36.60500000000003 8.010000000000003
    vertex -25.207323793166402 -30.32648212912109 8.010000000000003
    vertex -25.21537019600589 -36.15206667107062 8.010000000000003
  endloop
endfacet
facet normal 0.0 0.0 -1.0
  outer loop
    vertex -25.21537019600589 -36.15206667107062 8.010000000000003
    vertex -25.207323793166402 -30.32648212912109 8.010000000000003
    vertex -25.040544456622786 -35.73000000000003 8.010000000000003
  endloop
endfacet
facet normal 0.0 0.0 -1.0
  outer loop
    vertex -25.040544456622786 -35.73000000000003 8.010000000000003
    vertex -25.207323793166402 -30.32648212912109 8.010000000000003
    vertex -23.525000000000023 -30.105000000000032 8.010000000000003
  endloop
endfacet
facet normal 0.0 0.0 -1.0
  outer loop
    vertex -25.040544456622786 -35.73000000000003 8.010000000000003
    vertex -23.525000000000023 -30.105000000000032 8.010000000000003
    vertex -24.762436867076477 -35.36756313292358 8.010000000000003
  endloop
endfacet
facet normal 0.0 0.0 -1.0
  outer loop
    vertex -24.762436867076477 -35.36756313292358 8.010000000000003
    vertex -23.525000000000023 -30.105000000000032 8.010000000000003
    vertex -24.40000000000002 -35.08945554337727 8.010000000000003
  endloop
endfacet
facet normal 0.0 0.0 -1.0
  outer loop
    vertex -24.40000000000002 -35.08945554337727 8.010000000000003
    vertex -23.525000000000023 -30.105000000000032 8.010000000000003
    vertex -23.97793332892943 -34.91462980399417 8.010000000000003
  endloop
endfacet
facet normal 0.0 0.0 -1.0
  outer loop
    vertex -23.97793332892943 -34.91462980399417 8.010000000000003
    vertex -23.525000000000023 -30.105000000000032 8.010000000000003
    vertex -23.52500000000002 -34.85500000000003 8.010000000000003
  endloop
endfacet
facet normal 0.0 0.0 -1.0
  outer loop
    vertex -23.52500000000002 -34.85500000000003 8.010000000000003
    vertex -23.525000000000023 -30.105000000000032 8.010000000000003
    vertex -21.842676206833623 -30.326482129121086 8.010000000000003
  endloop
endfacet
facet normal 0.0 0.0 -1.0
  outer loop
    vertex -23.52500000000002 -34.85500000000003 8.010000000000003
    vertex -21.842676206833623 -30.326482129121086 8.010000000000003
    vertex -23.07206667107061 -34.91462980399417 8.010000000000003
  endloop
endfacet
facet normal 0.0 0.0 -1.0
  outer loop
    vertex -23.07206667107061 -34.91462980399417 8.010000000000003
    vertex -21.842676206833623 -30.326482129121086 8.010000000000003
    vertex -22.65000000000002 -35.08945554337726 8.010000000000003
  endloop
endfacet
facet normal 0.0 0.0 -1.0
  outer loop
    vertex -22.65000000000002 -35.08945554337726 8.010000000000003
    vertex -21.842676206833623 -30.326482129121086 8.010000000000003
    vertex -22.28756313292356 -35.36756313292358 8.010000000000003
  endloop
endfacet
facet normal 0.0 0.0 -1.0
  outer loop
    vertex -22.28756313292356 -35.36756313292358 8.010000000000003
    vertex -21.842676206833623 -30.326482129121086 8.010000000000003
    vertex -22.009455543377253 -35.73000000000003 8.010000000000003
  endloop
endfacet
facet normal 0.0 0.0 -1.0
  outer loop
    vertex -22.009455543377253 -35.73000000000003 8.010000000000003
    vertex -21.842676206833623 -30.326482129121086 8.010000000000003
    vertex -21.83462980399415 -36.15206667107062 8.010000000000003
  endloop
endfacet
facet normal 0.0 0.0 -1.0
  outer loop
    vertex -21.83462980399415 -36.15206667107062 8.010000000000003
    vertex -21.842676206833623 -30.326482129121086 8.010000000000003
    vertex -20.27500000000001 -30.975834875401183 8.010000000000003
  endloop
endfacet
facet normal 0.0 0.0 -1.0
  outer loop
    vertex -21.83462980399415 -36.15206667107062 8.010000000000003
    vertex -20.27500000000001 -30.975834875401183 8.010000000000003
    vertex -21.77500000000002 -36.60500000000003 8.010000000000003
  endloop
endfacet
facet normal 0.0 0.0 -1.0
  outer loop
    vertex -21.77500000000002 -36.60500000000003 8.010000000000003
    vertex -20.27500000000001 -30.975834875401183 8.010000000000003
    vertex -20.275000000000027 -42.23416512459889 8.010000000000003
  endloop
endfacet
facet normal 0.0 0.0 -1.0
  outer loop
    vertex -20.275000000000027 -42.23416512459889 8.010000000000003
    vertex -20.27500000000001 -30.975834875401183 8.010000000000003
    vertex -18.92880592228747 -41.20119407771259 8.010000000000003
  endloop
endfacet
facet normal 0.0 0.0 -1.0
  outer loop
    vertex -18.92880592228747 -41.20119407771259 8.010000000000003
    vertex -20.27500000000001 -30.975834875401183 8.010000000000003
    vertex -18.928805922287452 -32.00880592228748 8.010000000000003
  endloop
endfacet
facet normal 0.0 0.0 -1.0
  outer loop
    vertex -18.92880592228747 -41.20119407771259 8.010000000000003
    vertex -18.928805922287452 -32.00880592228748 8.010000000000003
    vertex -17.895834875401174 -39.85500000000004 8.010000000000003
  endloop
endfacet
facet normal 0.0 0.0 -1.0
  outer loop
    vertex -17.895834875401174 -39.85500000000004 8.010000000000003
    vertex -18.928805922287452 -32.00880592228748 8.010000000000003
    vertex -17.89583487540116 -33.35500000000004 8.010000000000003
  endloop
endfacet
facet normal 0.0 0.0 -1.0
  outer loop
    vertex -17.895834875401174 -39.85500000000004 8.010000000000003
    vertex -17.89583487540116 -33.35500000000004 8.010000000000003
    vertex -17.24648212912108 -38.28732379316642 8.010000000000003
  endloop
endfacet
facet normal 0.0 0.0 -1.0
  outer loop
    vertex -17.24648212912108 -38.28732379316642 8.010000000000003
    vertex -17.89583487540116 -33.35500000000004 8.010000000000003
    vertex -17.246482129121073 -34.92267620683366 8.010000000000003
  endloop
endfacet
facet normal 0.0 0.0 -1.0
  outer loop
    vertex -17.24648212912108 -38.28732379316642 8.010000000000003
    vertex -17.246482129121073 -34.92267620683366 8.010000000000003
    vertex -17.02500000000002 -36.60500000000004 8.010000000000003
  endloop
endfacet
facet normal 0.0 0.0 -1.0
  outer loop
    vertex -29.80351787087896 -34.922676206833636 8.010000000000003
    vertex -29.803517870878963 -38.2873237931664 8.010000000000003
    vertex -30.02500000000002 -36.60500000000002 8.010000000000003
  endloop
endfacet
facet normal 0.0 0.0 -1.0
  outer loop
    vertex -29.803517870878963 -38.2873237931664 8.010000000000003
    vertex -29.80351787087896 -34.922676206833636 8.010000000000003
    vertex -29.154165124598876 -39.85500000000002 8.010000000000003
  endloop
endfacet
facet normal 0.0 0.0 -1.0
  outer loop
    vertex -29.154165124598876 -39.85500000000002 8.010000000000003
    vertex -29.80351787087896 -34.922676206833636 8.010000000000003
    vertex -29.154165124598865 -33.355000000000025 8.010000000000003
  endloop
endfacet
facet normal 0.0 0.0 -1.0
  outer loop
    vertex -29.154165124598876 -39.85500000000002 8.010000000000003
    vertex -29.154165124598865 -33.355000000000025 8.010000000000003
    vertex -28.12119407771259 -41.20119407771258 8.010000000000003
  endloop
endfacet
facet normal 0.0 0.0 -1.0
  outer loop
    vertex -28.12119407771259 -41.20119407771258 8.010000000000003
    vertex -29.154165124598865 -33.355000000000025 8.010000000000003
    vertex -28.121194077712573 -32.00880592228747 8.010000000000003
  endloop
endfacet
facet normal 0.0 0.0 -1.0
  outer loop
    vertex -28.12119407771259 -41.20119407771258 8.010000000000003
    vertex -28.121194077712573 -32.00880592228747 8.010000000000003
    vertex -26.77500000000003 -42.234165124598874 8.010000000000003
  endloop
endfacet
facet normal 0.0 0.0 -1.0
  outer loop
    vertex -26.77500000000003 -42.234165124598874 8.010000000000003
    vertex -28.121194077712573 -32.00880592228747 8.010000000000003
    vertex -26.77500000000002 -30.97583487540118 8.010000000000003
  endloop
endfacet
facet normal 0.0 0.0 -1.0
  outer loop
    vertex -26.77500000000003 -42.234165124598874 8.010000000000003
    vertex -26.77500000000002 -30.97583487540118 8.010000000000003
    vertex -25.207323793166417 -42.88351787087897 8.010000000000003
  endloop
endfacet
facet normal 0.0 0.0 -1.0
  outer loop
    vertex -25.207323793166417 -42.88351787087897 8.010000000000003
    vertex -26.77500000000002 -30.97583487540118 8.010000000000003
    vertex -25.27500000000002 -36.60500000000003 8.010000000000003
  endloop
endfacet
facet normal 0.0 0.0 -1.0
  outer loop
    vertex -25.207323793166417 -42.88351787087897 8.010000000000003
    vertex -25.27500000000002 -36.60500000000003 8.010000000000003
    vertex -25.215370196005885 -37.057933328929444 8.010000000000003
  endloop
endfacet
facet normal 0.0 0.0 -1.0
  outer loop
    vertex -25.207323793166417 -42.88351787087897 8.010000000000003
    vertex -25.215370196005885 -37.057933328929444 8.010000000000003
    vertex -25.040544456622786 -37.48000000000003 8.010000000000003
  endloop
endfacet
facet normal 0.0 0.0 -1.0
  outer loop
    vertex -25.207323793166417 -42.88351787087897 8.010000000000003
    vertex -25.040544456622786 -37.48000000000003 8.010000000000003
    vertex -23.525000000000034 -43.10500000000003 8.010000000000003
  endloop
endfacet
facet normal 0.0 0.0 -1.0
  outer loop
    vertex -23.525000000000034 -43.10500000000003 8.010000000000003
    vertex -25.040544456622786 -37.48000000000003 8.010000000000003
    vertex -24.762436867076477 -37.842436867076486 8.010000000000003
  endloop
endfacet
facet normal 0.0 0.0 -1.0
  outer loop
    vertex -23.525000000000034 -43.10500000000003 8.010000000000003
    vertex -24.762436867076477 -37.842436867076486 8.010000000000003
    vertex -24.400000000000016 -38.1205444566228 8.010000000000003
  endloop
endfacet
facet normal 0.0 0.0 -1.0
  outer loop
    vertex -23.525000000000034 -43.10500000000003 8.010000000000003
    vertex -24.400000000000016 -38.1205444566228 8.010000000000003
    vertex -23.97793332892943 -38.2953701960059 8.010000000000003
  endloop
endfacet
facet normal 0.0 0.0 -1.0
  outer loop
    vertex -23.525000000000034 -43.10500000000003 8.010000000000003
    vertex -23.97793332892943 -38.2953701960059 8.010000000000003
    vertex -23.52500000000002 -38.355000000000025 8.010000000000003
  endloop
endfacet
facet normal 0.0 0.0 -1.0
  outer loop
    vertex -23.525000000000034 -43.10500000000003 8.010000000000003
    vertex -23.52500000000002 -38.355000000000025 8.010000000000003
    vertex -21.842676206833648 -42.883517870878975 8.010000000000003
  endloop
endfacet
facet normal 0.0 0.0 -1.0
  outer loop
    vertex -21.842676206833648 -42.883517870878975 8.010000000000003
    vertex -23.52500000000002 -38.355000000000025 8.010000000000003
    vertex -23.07206667107061 -38.2953701960059 8.010000000000003
  endloop
endfacet
facet normal 0.0 0.0 -1.0
  outer loop
    vertex -21.842676206833648 -42.883517870878975 8.010000000000003
    vertex -23.07206667107061 -38.2953701960059 8.010000000000003
    vertex -22.650000000000016 -38.1205444566228 8.010000000000003
  endloop
endfacet
facet normal 0.0 0.0 -1.0
  outer loop
    vertex -21.842676206833648 -42.883517870878975 8.010000000000003
    vertex -22.650000000000016 -38.1205444566228 8.010000000000003
    vertex -22.28756313292356 -37.842436867076486 8.010000000000003
  endloop
endfacet
facet normal 0.0 0.0 -1.0
  outer loop
    vertex -21.842676206833648 -42.883517870878975 8.010000000000003
    vertex -22.28756313292356 -37.842436867076486 8.010000000000003
    vertex -22.009455543377253 -37.48000000000003 8.010000000000003
  endloop
endfacet
facet normal 0.0 0.0 -1.0
  outer loop
    vertex -21.842676206833648 -42.883517870878975 8.010000000000003
    vertex -22.009455543377253 -37.48000000000003 8.010000000000003
    vertex -21.83462980399415 -37.057933328929444 8.010000000000003
  endloop
endfacet
facet normal 0.0 0.0 -1.0
  outer loop
    vertex -21.842676206833648 -42.883517870878975 8.010000000000003
    vertex -21.83462980399415 -37.057933328929444 8.010000000000003
    vertex -20.275000000000027 -42.23416512459889 8.010000000000003
  endloop
endfacet
facet normal 0.0 0.0 -1.0
  outer loop
    vertex -20.275000000000027 -42.23416512459889 8.010000000000003
    vertex -21.83462980399415 -37.057933328929444 8.010000000000003
    vertex -21.77500000000002 -36.60500000000003 8.010000000000003
  endloop
endfacet
facet normal 0.7933533402912355 0.6087614290087201 5.688113142910322e-16
  outer loop
    vertex -18.928805922287452 -32.00880592228748 8.010000000000003
    vertex -17.89583487540116 -33.35500000000004 10.010000000000003
    vertex -17.89583487540116 -33.35500000000004 8.010000000000003
  endloop
endfacet
facet normal 0.7933533402912355 0.6087614290087201 5.688113142910322e-16
  outer loop
    vertex -17.89583487540116 -33.35500000000004 10.010000000000003
    vertex -18.928805922287452 -32.00880592228748 8.010000000000003
    vertex -18.928805922287456 -32.008805922287486 10.010000000000003
  endloop
endfacet
facet normal 0.3826834323650927 0.9238795325112857 1.027568705021177e-15
  outer loop
    vertex -21.84267620683362 -30.32648212912109 10.010000000000003
    vertex -20.27500000000001 -30.975834875401183 8.010000000000003
    vertex -21.842676206833623 -30.326482129121086 8.010000000000003
  endloop
endfacet
facet normal 0.3826834323650927 0.9238795325112857 1.027568705021177e-15
  outer loop
    vertex -20.27500000000001 -30.975834875401183 8.010000000000003
    vertex -21.84267620683362 -30.32648212912109 10.010000000000003
    vertex -20.27500000000001 -30.975834875401183 10.010000000000003
  endloop
endfacet
facet normal 0.9914448613738103 -0.1305261922200535 -1.8260193308087753e-16
  outer loop
    vertex -17.24648212912108 -38.28732379316642 8.010000000000003
    vertex -17.02500000000002 -36.60500000000004 10.010000000000003
    vertex -17.24648212912108 -38.28732379316643 10.010000000000003
  endloop
endfacet
facet normal 0.9914448613738103 -0.1305261922200535 -1.8260193308087753e-16
  outer loop
    vertex -17.02500000000002 -36.60500000000004 10.010000000000003
    vertex -17.24648212912108 -38.28732379316642 8.010000000000003
    vertex -17.02500000000002 -36.60500000000004 8.010000000000003
  endloop
endfacet
facet normal 0.1305261922200512 0.9914448613738105 8.432972827721676e-16
  outer loop
    vertex -23.52500000000001 -30.105000000000032 10.010000000000003
    vertex -21.842676206833623 -30.326482129121086 8.010000000000003
    vertex -23.525000000000023 -30.105000000000032 8.010000000000003
  endloop
endfacet
facet normal 0.1305261922200512 0.9914448613738105 8.432972827721676e-16
  outer loop
    vertex -21.842676206833623 -30.326482129121086 8.010000000000003
    vertex -23.52500000000001 -30.105000000000032 10.010000000000003
    vertex -21.84267620683362 -30.32648212912109 10.010000000000003
  endloop
endfacet
facet normal 0.9238795325112875 0.38268343236508806 -1.084107603015924e-15
  outer loop
    vertex -17.89583487540116 -33.35500000000004 8.010000000000003
    vertex -17.246482129121073 -34.92267620683365 10.010000000000003
    vertex -17.246482129121073 -34.92267620683366 8.010000000000003
  endloop
endfacet
facet normal 0.9238795325112875 0.38268343236508806 -1.084107603015924e-15
  outer loop
    vertex -17.246482129121073 -34.92267620683365 10.010000000000003
    vertex -17.89583487540116 -33.35500000000004 8.010000000000003
    vertex -17.89583487540116 -33.35500000000004 10.010000000000003
  endloop
endfacet
facet normal 0.9238795325112863 -0.38268343236509095 1.1087705487431385e-16
  outer loop
    vertex -17.24648212912108 -38.28732379316642 8.010000000000003
    vertex -17.895834875401174 -39.85500000000004 10.010000000000003
    vertex -17.895834875401174 -39.85500000000004 8.010000000000003
  endloop
endfacet
facet normal 0.9238795325112863 -0.38268343236509095 1.1087705487431385e-16
  outer loop
    vertex -17.895834875401174 -39.85500000000004 10.010000000000003
    vertex -17.24648212912108 -38.28732379316642 8.010000000000003
    vertex -17.24648212912108 -38.28732379316643 10.010000000000003
  endloop
endfacet
facet normal 0.9914448613738107 0.13052619222004977 -1.826019330808768e-16
  outer loop
    vertex -17.246482129121073 -34.92267620683366 8.010000000000003
    vertex -17.02500000000002 -36.60500000000004 10.010000000000003
    vertex -17.02500000000002 -36.60500000000004 8.010000000000003
  endloop
endfacet
facet normal 0.9914448613738107 0.13052619222004977 -1.826019330808768e-16
  outer loop
    vertex -17.02500000000002 -36.60500000000004 10.010000000000003
    vertex -17.246482129121073 -34.92267620683366 8.010000000000003
    vertex -17.246482129121073 -34.92267620683365 10.010000000000003
  endloop
endfacet
facet normal 0.6087614290087221 0.7933533402912342 1.5569854777868499e-15
  outer loop
    vertex -20.27500000000001 -30.975834875401183 10.010000000000003
    vertex -18.928805922287452 -32.00880592228748 8.010000000000003
    vertex -20.27500000000001 -30.975834875401183 8.010000000000003
  endloop
endfacet
facet normal 0.6087614290087221 0.7933533402912342 1.5569854777868499e-15
  outer loop
    vertex -18.928805922287452 -32.00880592228748 8.010000000000003
    vertex -20.27500000000001 -30.975834875401183 10.010000000000003
    vertex -18.928805922287456 -32.008805922287486 10.010000000000003
  endloop
endfacet
facet normal 0.6087614290087207 -0.7933533402912352 8.516376049234951e-16
  outer loop
    vertex -18.92880592228747 -41.20119407771259 10.010000000000003
    vertex -20.275000000000027 -42.23416512459889 8.010000000000003
    vertex -18.92880592228747 -41.20119407771259 8.010000000000003
  endloop
endfacet
facet normal 0.6087614290087207 -0.7933533402912352 8.516376049234951e-16
  outer loop
    vertex -20.275000000000027 -42.23416512459889 8.010000000000003
    vertex -18.92880592228747 -41.20119407771259 10.010000000000003
    vertex -20.27500000000003 -42.23416512459889 10.010000000000003
  endloop
endfacet
facet normal 0.13052619222005 -0.9914448613738107 1.826019330808692e-16
  outer loop
    vertex -21.842676206833648 -42.883517870878975 10.010000000000003
    vertex -23.525000000000034 -43.10500000000003 8.010000000000003
    vertex -21.842676206833648 -42.883517870878975 8.010000000000003
  endloop
endfacet
facet normal 0.13052619222005 -0.9914448613738107 1.826019330808692e-16
  outer loop
    vertex -23.525000000000034 -43.10500000000003 8.010000000000003
    vertex -21.842676206833648 -42.883517870878975 10.010000000000003
    vertex -23.525000000000034 -43.10500000000003 10.010000000000003
  endloop
endfacet
facet normal -0.1305261922200536 -0.9914448613738103 -9.130096654043859e-17
  outer loop
    vertex -23.525000000000034 -43.10500000000003 10.010000000000003
    vertex -25.207323793166417 -42.88351787087897 8.010000000000003
    vertex -23.525000000000034 -43.10500000000003 8.010000000000003
  endloop
endfacet
facet normal -0.1305261922200536 -0.9914448613738103 -9.130096654043859e-17
  outer loop
    vertex -25.207323793166417 -42.88351787087897 8.010000000000003
    vertex -23.525000000000034 -43.10500000000003 10.010000000000003
    vertex -25.207323793166417 -42.88351787087897 10.010000000000003
  endloop
endfacet
facet normal -0.3826834323650909 -0.9238795325112863 -3.67344247332223e-30
  outer loop
    vertex -25.207323793166417 -42.88351787087897 10.010000000000003
    vertex -26.77500000000003 -42.234165124598874 8.010000000000003
    vertex -25.207323793166417 -42.88351787087897 8.010000000000003
  endloop
endfacet
facet normal -0.3826834323650909 -0.9238795325112863 -3.67344247332223e-30
  outer loop
    vertex -26.77500000000003 -42.234165124598874 8.010000000000003
    vertex -25.207323793166417 -42.88351787087897 10.010000000000003
    vertex -26.77500000000003 -42.234165124598874 10.010000000000003
  endloop
endfacet
facet normal -0.9238795325112863 0.38268343236509095 -1.5331596752569098e-15
  outer loop
    vertex -29.154165124598872 -33.35500000000003 10.010000000000003
    vertex -29.80351787087896 -34.922676206833636 8.010000000000003
    vertex -29.803517870878963 -34.92267620683364 10.010000000000003
  endloop
endfacet
facet normal -0.9238795325112863 0.38268343236509095 -1.5331596752569098e-15
  outer loop
    vertex -29.80351787087896 -34.922676206833636 8.010000000000003
    vertex -29.154165124598872 -33.35500000000003 10.010000000000003
    vertex -29.154165124598865 -33.355000000000025 8.010000000000003
  endloop
endfacet
facet normal -0.9914448613738105 0.13052619222005182 -8.38732234445138e-16
  outer loop
    vertex -29.803517870878963 -34.92267620683364 10.010000000000003
    vertex -30.02500000000002 -36.60500000000002 8.010000000000003
    vertex -30.02500000000002 -36.60500000000003 10.010000000000003
  endloop
endfacet
facet normal -0.9914448613738105 0.13052619222005182 -8.38732234445138e-16
  outer loop
    vertex -30.02500000000002 -36.60500000000002 8.010000000000003
    vertex -29.803517870878963 -34.92267620683364 10.010000000000003
    vertex -29.80351787087896 -34.922676206833636 8.010000000000003
  endloop
endfacet
facet normal -0.793353340291236 -0.6087614290087194 1.381987312170558e-15
  outer loop
    vertex -29.154165124598872 -39.855000000000025 10.010000000000003
    vertex -28.12119407771259 -41.20119407771258 8.010000000000003
    vertex -28.121194077712584 -41.20119407771258 10.010000000000003
  endloop
endfacet
facet normal -0.793353340291236 -0.6087614290087194 1.381987312170558e-15
  outer loop
    vertex -28.12119407771259 -41.20119407771258 8.010000000000003
    vertex -29.154165124598872 -39.855000000000025 10.010000000000003
    vertex -29.154165124598876 -39.85500000000002 8.010000000000003
  endloop
endfacet
facet normal -0.7933533402912338 0.6087614290087223 -5.30349707247047e-16
  outer loop
    vertex -28.121194077712577 -32.00880592228748 10.010000000000003
    vertex -29.154165124598865 -33.355000000000025 8.010000000000003
    vertex -29.154165124598872 -33.35500000000003 10.010000000000003
  endloop
endfacet
facet normal -0.7933533402912338 0.6087614290087223 -5.30349707247047e-16
  outer loop
    vertex -29.154165124598865 -33.355000000000025 8.010000000000003
    vertex -28.121194077712577 -32.00880592228748 10.010000000000003
    vertex -28.121194077712573 -32.00880592228747 8.010000000000003
  endloop
endfacet
facet normal -0.38268343236508745 0.9238795325112878 -4.462801458691409e-16
  outer loop
    vertex -26.775000000000006 -30.975834875401173 10.010000000000003
    vertex -25.207323793166402 -30.32648212912109 8.010000000000003
    vertex -26.77500000000002 -30.97583487540118 8.010000000000003
  endloop
endfacet
facet normal -0.38268343236508745 0.9238795325112878 -4.462801458691409e-16
  outer loop
    vertex -25.207323793166402 -30.32648212912109 8.010000000000003
    vertex -26.775000000000006 -30.975834875401173 10.010000000000003
    vertex -25.207323793166392 -30.326482129121086 10.010000000000003
  endloop
endfacet
facet normal -0.6087614290087219 0.7933533402912344 8.516376049234946e-16
  outer loop
    vertex -28.121194077712577 -32.00880592228748 10.010000000000003
    vertex -26.77500000000002 -30.97583487540118 8.010000000000003
    vertex -28.121194077712573 -32.00880592228747 8.010000000000003
  endloop
endfacet
facet normal -0.6087614290087219 0.7933533402912344 8.516376049234946e-16
  outer loop
    vertex -26.77500000000002 -30.97583487540118 8.010000000000003
    vertex -28.121194077712577 -32.00880592228748 10.010000000000003
    vertex -26.775000000000006 -30.975834875401173 10.010000000000003
  endloop
endfacet
facet normal 0.7933533402912332 -0.6087614290087232 1.1098757352020123e-15
  outer loop
    vertex -17.895834875401174 -39.85500000000004 8.010000000000003
    vertex -18.92880592228747 -41.20119407771259 10.010000000000003
    vertex -18.92880592228747 -41.20119407771259 8.010000000000003
  endloop
endfacet
facet normal 0.7933533402912332 -0.6087614290087232 1.1098757352020123e-15
  outer loop
    vertex -18.92880592228747 -41.20119407771259 10.010000000000003
    vertex -17.895834875401174 -39.85500000000004 8.010000000000003
    vertex -17.895834875401174 -39.85500000000004 10.010000000000003
  endloop
endfacet
facet normal -0.9914448613738107 -0.1305261922200504 -7.395378289775348e-16
  outer loop
    vertex -30.02500000000002 -36.60500000000003 10.010000000000003
    vertex -29.803517870878963 -38.2873237931664 8.010000000000003
    vertex -29.803517870878963 -38.287323793166415 10.010000000000003
  endloop
endfacet
facet normal -0.9914448613738107 -0.1305261922200504 -7.395378289775348e-16
  outer loop
    vertex -29.803517870878963 -38.2873237931664 8.010000000000003
    vertex -30.02500000000002 -36.60500000000003 10.010000000000003
    vertex -30.02500000000002 -36.60500000000002 8.010000000000003
  endloop
endfacet
facet normal -0.6087614290087237 -0.7933533402912331 8.377641582334777e-16
  outer loop
    vertex -26.77500000000003 -42.234165124598874 10.010000000000003
    vertex -28.12119407771259 -41.20119407771258 8.010000000000003
    vertex -26.77500000000003 -42.234165124598874 8.010000000000003
  endloop
endfacet
facet normal -0.6087614290087237 -0.7933533402912331 8.377641582334777e-16
  outer loop
    vertex -28.12119407771259 -41.20119407771258 8.010000000000003
    vertex -26.77500000000003 -42.234165124598874 10.010000000000003
    vertex -28.121194077712584 -41.20119407771258 10.010000000000003
  endloop
endfacet
facet normal -0.9238795325112871 -0.38268343236508895 -3.1083574314663043e-16
  outer loop
    vertex -29.803517870878963 -38.287323793166415 10.010000000000003
    vertex -29.154165124598876 -39.85500000000002 8.010000000000003
    vertex -29.154165124598872 -39.855000000000025 10.010000000000003
  endloop
endfacet
facet normal -0.9238795325112871 -0.38268343236508895 -3.1083574314663043e-16
  outer loop
    vertex -29.154165124598876 -39.85500000000002 8.010000000000003
    vertex -29.803517870878963 -38.287323793166415 10.010000000000003
    vertex -29.803517870878963 -38.2873237931664 8.010000000000003
  endloop
endfacet
facet normal 0.38268343236508684 -0.9238795325112881 5.353617792671214e-16
  outer loop
    vertex -20.27500000000003 -42.23416512459889 10.010000000000003
    vertex -21.842676206833648 -42.883517870878975 8.010000000000003
    vertex -20.275000000000027 -42.23416512459889 8.010000000000003
  endloop
endfacet
facet normal 0.38268343236508684 -0.9238795325112881 5.353617792671214e-16
  outer loop
    vertex -21.842676206833648 -42.883517870878975 8.010000000000003
    vertex -20.27500000000003 -42.23416512459889 10.010000000000003
    vertex -21.842676206833648 -42.883517870878975 10.010000000000003
  endloop
endfacet
facet normal -0.13052619222005193 0.9914448613738105 -5.693943831508469e-16
  outer loop
    vertex -25.207323793166392 -30.326482129121086 10.010000000000003
    vertex -23.525000000000023 -30.105000000000032 8.010000000000003
    vertex -25.207323793166402 -30.32648212912109 8.010000000000003
  endloop
endfacet
facet normal -0.13052619222005193 0.9914448613738105 -5.693943831508469e-16
  outer loop
    vertex -23.525000000000023 -30.105000000000032 8.010000000000003
    vertex -25.207323793166392 -30.326482129121086 10.010000000000003
    vertex -23.52500000000001 -30.105000000000032 10.010000000000003
  endloop
endfacet
facet normal -3.136966849188778e-32 -6.273933698377562e-32 1.0
  outer loop
    vertex -29.803517870878963 -38.287323793166415 10.010000000000003
    vertex -29.803517870878963 -34.92267620683364 10.010000000000003
    vertex -30.02500000000002 -36.60500000000003 10.010000000000003
  endloop
endfacet
facet normal -3.136966849188778e-32 -6.273933698377562e-32 1.0
  outer loop
    vertex -29.803517870878963 -34.92267620683364 10.010000000000003
    vertex -29.803517870878963 -38.287323793166415 10.010000000000003
    vertex -29.154165124598872 -39.855000000000025 10.010000000000003
  endloop
endfacet
facet normal -3.136966849188778e-32 -6.273933698377562e-32 1.0
  outer loop
    vertex -29.803517870878963 -34.92267620683364 10.010000000000003
    vertex -29.154165124598872 -39.855000000000025 10.010000000000003
    vertex -29.154165124598872 -33.35500000000003 10.010000000000003
  endloop
endfacet
facet normal -3.136966849188778e-32 -6.273933698377562e-32 1.0
  outer loop
    vertex -29.154165124598872 -33.35500000000003 10.010000000000003
    vertex -29.154165124598872 -39.855000000000025 10.010000000000003
    vertex -28.121194077712584 -41.20119407771258 10.010000000000003
  endloop
endfacet
facet normal -3.136966849188778e-32 -6.273933698377562e-32 1.0
  outer loop
    vertex -29.154165124598872 -33.35500000000003 10.010000000000003
    vertex -28.121194077712584 -41.20119407771258 10.010000000000003
    vertex -28.121194077712577 -32.00880592228748 10.010000000000003
  endloop
endfacet
facet normal -3.136966849188778e-32 -6.273933698377562e-32 1.0
  outer loop
    vertex -28.121194077712577 -32.00880592228748 10.010000000000003
    vertex -28.121194077712584 -41.20119407771258 10.010000000000003
    vertex -27.525000000000016 -36.60500000000003 10.010000000000003
  endloop
endfacet
facet normal -3.136966849188778e-32 -6.273933698377562e-32 1.0
  outer loop
    vertex -27.525000000000016 -36.60500000000003 10.010000000000003
    vertex -28.121194077712584 -41.20119407771258 10.010000000000003
    vertex -27.38870330515629 -37.64027618041011 10.010000000000003
  endloop
endfacet
facet normal -3.136966849188778e-32 -6.273933698377562e-32 1.0
  outer loop
    vertex -27.38870330515629 -37.64027618041011 10.010000000000003
    vertex -28.121194077712584 -41.20119407771258 10.010000000000003
    vertex -26.77500000000003 -42.234165124598874 10.010000000000003
  endloop
endfacet
facet normal -3.136966849188778e-32 -6.273933698377562e-32 1.0
  outer loop
    vertex -27.38870330515629 -37.64027618041011 10.010000000000003
    vertex -26.77500000000003 -42.234165124598874 10.010000000000003
    vertex -26.989101615137777 -38.60500000000003 10.010000000000003
  endloop
endfacet
facet normal -3.136966849188778e-32 -6.273933698377562e-32 1.0
  outer loop
    vertex -26.989101615137777 -38.60500000000003 10.010000000000003
    vertex -26.77500000000003 -42.234165124598874 10.010000000000003
    vertex -26.35342712474621 -39.433427124746224 10.010000000000003
  endloop
endfacet
facet normal -3.136966849188778e-32 -6.273933698377562e-32 1.0
  outer loop
    vertex -26.35342712474621 -39.433427124746224 10.010000000000003
    vertex -26.77500000000003 -42.234165124598874 10.010000000000003
    vertex -25.207323793166417 -42.88351787087897 10.010000000000003
  endloop
endfacet
facet normal -3.136966849188778e-32 -6.273933698377562e-32 1.0
  outer loop
    vertex -26.35342712474621 -39.433427124746224 10.010000000000003
    vertex -25.207323793166417 -42.88351787087897 10.010000000000003
    vertex -25.525000000000016 -40.06910161513779 10.010000000000003
  endloop
endfacet
facet normal -3.136966849188778e-32 -6.273933698377562e-32 1.0
  outer loop
    vertex -25.525000000000016 -40.06910161513779 10.010000000000003
    vertex -25.207323793166417 -42.88351787087897 10.010000000000003
    vertex -24.560276180410103 -40.4687033051563 10.010000000000003
  endloop
endfacet
facet normal -3.136966849188778e-32 -6.273933698377562e-32 1.0
  outer loop
    vertex -24.560276180410103 -40.4687033051563 10.010000000000003
    vertex -25.207323793166417 -42.88351787087897 10.010000000000003
    vertex -23.525000000000034 -43.10500000000003 10.010000000000003
  endloop
endfacet
facet normal -3.136966849188778e-32 -6.273933698377562e-32 1.0
  outer loop
    vertex -24.560276180410103 -40.4687033051563 10.010000000000003
    vertex -23.525000000000034 -43.10500000000003 10.010000000000003
    vertex -23.52500000000002 -40.60500000000003 10.010000000000003
  endloop
endfacet
facet normal -3.136966849188778e-32 -6.273933698377562e-32 1.0
  outer loop
    vertex -23.52500000000002 -40.60500000000003 10.010000000000003
    vertex -23.525000000000034 -43.10500000000003 10.010000000000003
    vertex -21.842676206833648 -42.883517870878975 10.010000000000003
  endloop
endfacet
facet normal -3.136966849188778e-32 -6.273933698377562e-32 1.0
  outer loop
    vertex -23.52500000000002 -40.60500000000003 10.010000000000003
    vertex -21.842676206833648 -42.883517870878975 10.010000000000003
    vertex -22.489723819589937 -40.4687033051563 10.010000000000003
  endloop
endfacet
facet normal -3.136966849188778e-32 -6.273933698377562e-32 1.0
  outer loop
    vertex -22.489723819589937 -40.4687033051563 10.010000000000003
    vertex -21.842676206833648 -42.883517870878975 10.010000000000003
    vertex -21.52500000000002 -40.06910161513779 10.010000000000003
  endloop
endfacet
facet normal -3.136966849188778e-32 -6.273933698377562e-32 1.0
  outer loop
    vertex -21.52500000000002 -40.06910161513779 10.010000000000003
    vertex -21.842676206833648 -42.883517870878975 10.010000000000003
    vertex -20.27500000000003 -42.23416512459889 10.010000000000003
  endloop
endfacet
facet normal -3.136966849188778e-32 -6.273933698377562e-32 1.0
  outer loop
    vertex -21.52500000000002 -40.06910161513779 10.010000000000003
    vertex -20.27500000000003 -42.23416512459889 10.010000000000003
    vertex -20.69657287525383 -39.433427124746224 10.010000000000003
  endloop
endfacet
facet normal -3.136966849188778e-32 -6.273933698377562e-32 1.0
  outer loop
    vertex -20.69657287525383 -39.433427124746224 10.010000000000003
    vertex -20.27500000000003 -42.23416512459889 10.010000000000003
    vertex -20.060898384862266 -38.60500000000003 10.010000000000003
  endloop
endfacet
facet normal -3.136966849188778e-32 -6.273933698377562e-32 1.0
  outer loop
    vertex -20.060898384862266 -38.60500000000003 10.010000000000003
    vertex -20.27500000000003 -42.23416512459889 10.010000000000003
    vertex -18.92880592228747 -41.20119407771259 10.010000000000003
  endloop
endfacet
facet normal -3.136966849188778e-32 -6.273933698377562e-32 1.0
  outer loop
    vertex -20.060898384862266 -38.60500000000003 10.010000000000003
    vertex -18.92880592228747 -41.20119407771259 10.010000000000003
    vertex -19.66129669484375 -37.64027618041012 10.010000000000003
  endloop
endfacet
facet normal -3.136966849188778e-32 -6.273933698377562e-32 1.0
  outer loop
    vertex -19.66129669484375 -37.64027618041012 10.010000000000003
    vertex -18.92880592228747 -41.20119407771259 10.010000000000003
    vertex -19.52500000000002 -36.605000000000025 10.010000000000003
  endloop
endfacet
facet normal -3.136966849188778e-32 -6.273933698377562e-32 1.0
  outer loop
    vertex -28.121194077712577 -32.00880592228748 10.010000000000003
    vertex -27.38870330515629 -35.569723819589946 10.010000000000003
    vertex -26.775000000000006 -30.975834875401173 10.010000000000003
  endloop
endfacet
facet normal -3.136966849188778e-32 -6.273933698377562e-32 1.0
  outer loop
    vertex -27.38870330515629 -35.569723819589946 10.010000000000003
    vertex -28.121194077712577 -32.00880592228748 10.010000000000003
    vertex -27.525000000000016 -36.60500000000003 10.010000000000003
  endloop
endfacet
facet normal -3.136966849188778e-32 -6.273933698377562e-32 1.0
  outer loop
    vertex -26.775000000000006 -30.975834875401173 10.010000000000003
    vertex -27.38870330515629 -35.569723819589946 10.010000000000003
    vertex -26.98910161513777 -34.60500000000003 10.010000000000003
  endloop
endfacet
facet normal -3.136966849188778e-32 -6.273933698377562e-32 1.0
  outer loop
    vertex -26.775000000000006 -30.975834875401173 10.010000000000003
    vertex -26.98910161513777 -34.60500000000003 10.010000000000003
    vertex -26.353427124746204 -33.77657287525384 10.010000000000003
  endloop
endfacet
facet normal -3.136966849188778e-32 -6.273933698377562e-32 1.0
  outer loop
    vertex -26.775000000000006 -30.975834875401173 10.010000000000003
    vertex -26.353427124746204 -33.77657287525384 10.010000000000003
    vertex -25.207323793166392 -30.326482129121086 10.010000000000003
  endloop
endfacet
facet normal -3.136966849188778e-32 -6.273933698377562e-32 1.0
  outer loop
    vertex -25.207323793166392 -30.326482129121086 10.010000000000003
    vertex -26.353427124746204 -33.77657287525384 10.010000000000003
    vertex -25.525000000000016 -33.140898384862275 10.010000000000003
  endloop
endfacet
facet normal -3.136966849188778e-32 -6.273933698377562e-32 1.0
  outer loop
    vertex -25.207323793166392 -30.326482129121086 10.010000000000003
    vertex -25.525000000000016 -33.140898384862275 10.010000000000003
    vertex -24.560276180410103 -32.74129669484376 10.010000000000003
  endloop
endfacet
facet normal -3.136966849188778e-32 -6.273933698377562e-32 1.0
  outer loop
    vertex -25.207323793166392 -30.326482129121086 10.010000000000003
    vertex -24.560276180410103 -32.74129669484376 10.010000000000003
    vertex -23.52500000000001 -30.105000000000032 10.010000000000003
  endloop
endfacet
facet normal -3.136966849188778e-32 -6.273933698377562e-32 1.0
  outer loop
    vertex -23.52500000000001 -30.105000000000032 10.010000000000003
    vertex -24.560276180410103 -32.74129669484376 10.010000000000003
    vertex -23.52500000000002 -32.60500000000003 10.010000000000003
  endloop
endfacet
facet normal -3.136966849188778e-32 -6.273933698377562e-32 1.0
  outer loop
    vertex -23.52500000000001 -30.105000000000032 10.010000000000003
    vertex -23.52500000000002 -32.60500000000003 10.010000000000003
    vertex -22.48972381958994 -32.74129669484376 10.010000000000003
  endloop
endfacet
facet normal -3.136966849188778e-32 -6.273933698377562e-32 1.0
  outer loop
    vertex -23.52500000000001 -30.105000000000032 10.010000000000003
    vertex -22.48972381958994 -32.74129669484376 10.010000000000003
    vertex -21.84267620683362 -30.32648212912109 10.010000000000003
  endloop
endfacet
facet normal -3.136966849188778e-32 -6.273933698377562e-32 1.0
  outer loop
    vertex -21.84267620683362 -30.32648212912109 10.010000000000003
    vertex -22.48972381958994 -32.74129669484376 10.010000000000003
    vertex -21.525000000000023 -33.140898384862275 10.010000000000003
  endloop
endfacet
facet normal -3.136966849188778e-32 -6.273933698377562e-32 1.0
  outer loop
    vertex -21.84267620683362 -30.32648212912109 10.010000000000003
    vertex -21.525000000000023 -33.140898384862275 10.010000000000003
    vertex -20.27500000000001 -30.975834875401183 10.010000000000003
  endloop
endfacet
facet normal -3.136966849188778e-32 -6.273933698377562e-32 1.0
  outer loop
    vertex -20.27500000000001 -30.975834875401183 10.010000000000003
    vertex -21.525000000000023 -33.140898384862275 10.010000000000003
    vertex -20.696572875253832 -33.77657287525384 10.010000000000003
  endloop
endfacet
facet normal -3.136966849188778e-32 -6.273933698377562e-32 1.0
  outer loop
    vertex -20.27500000000001 -30.975834875401183 10.010000000000003
    vertex -20.696572875253832 -33.77657287525384 10.010000000000003
    vertex -20.060898384862266 -34.605000000000025 10.010000000000003
  endloop
endfacet
facet normal -3.136966849188778e-32 -6.273933698377562e-32 1.0
  outer loop
    vertex -20.27500000000001 -30.975834875401183 10.010000000000003
    vertex -20.060898384862266 -34.605000000000025 10.010000000000003
    vertex -18.928805922287456 -32.008805922287486 10.010000000000003
  endloop
endfacet
facet normal -3.136966849188778e-32 -6.273933698377562e-32 1.0
  outer loop
    vertex -18.928805922287456 -32.008805922287486 10.010000000000003
    vertex -20.060898384862266 -34.605000000000025 10.010000000000003
    vertex -19.66129669484375 -35.56972381958994 10.010000000000003
  endloop
endfacet
facet normal -3.136966849188778e-32 -6.273933698377562e-32 1.0
  outer loop
    vertex -18.928805922287456 -32.008805922287486 10.010000000000003
    vertex -19.66129669484375 -35.56972381958994 10.010000000000003
    vertex -19.52500000000002 -36.605000000000025 10.010000000000003
  endloop
endfacet
facet normal -3.136966849188778e-32 -6.273933698377562e-32 1.0
  outer loop
    vertex -18.928805922287456 -32.008805922287486 10.010000000000003
    vertex -19.52500000000002 -36.605000000000025 10.010000000000003
    vertex -18.92880592228747 -41.20119407771259 10.010000000000003
  endloop
endfacet
facet normal -3.136966849188778e-32 -6.273933698377562e-32 1.0
  outer loop
    vertex -18.928805922287456 -32.008805922287486 10.010000000000003
    vertex -18.92880592228747 -41.20119407771259 10.010000000000003
    vertex -17.895834875401174 -39.85500000000004 10.010000000000003
  endloop
endfacet
facet normal -3.136966849188778e-32 -6.273933698377562e-32 1.0
  outer loop
    vertex -18.928805922287456 -32.008805922287486 10.010000000000003
    vertex -17.895834875401174 -39.85500000000004 10.010000000000003
    vertex -17.89583487540116 -33.35500000000004 10.010000000000003
  endloop
endfacet
facet normal -3.136966849188778e-32 -6.273933698377562e-32 1.0
  outer loop
    vertex -17.89583487540116 -33.35500000000004 10.010000000000003
    vertex -17.895834875401174 -39.85500000000004 10.010000000000003
    vertex -17.24648212912108 -38.28732379316643 10.010000000000003
  endloop
endfacet
facet normal -3.136966849188778e-32 -6.273933698377562e-32 1.0
  outer loop
    vertex -17.89583487540116 -33.35500000000004 10.010000000000003
    vertex -17.24648212912108 -38.28732379316643 10.010000000000003
    vertex -17.246482129121073 -34.92267620683365 10.010000000000003
  endloop
endfacet
facet normal -3.136966849188778e-32 -6.273933698377562e-32 1.0
  outer loop
    vertex -17.246482129121073 -34.92267620683365 10.010000000000003
    vertex -17.24648212912108 -38.28732379316643 10.010000000000003
    vertex -17.02500000000002 -36.60500000000004 10.010000000000003
  endloop
endfacet
endsolid esp32_rio_case (FDM)
