solid esp32_rio_case (FDM)
facet normal -0.7933533402912344 -0.6087614290087219 0.0
  outer loop
    vertex -31.42211431702999 -21.500000000000014 10.010000000000003
    vertex -30.706980515339477 -22.43198051533948 8.010000000000005
    vertex -30.706980515339477 -22.43198051533948 10.010000000000003
  endloop
endfacet
facet normal -0.7933533402912344 -0.6087614290087219 0.0
  outer loop
    vertex -30.706980515339477 -22.43198051533948 8.010000000000005
    vertex -31.42211431702999 -21.500000000000014 10.010000000000003
    vertex -31.42211431702999 -21.500000000000014 8.010000000000005
  endloop
endfacet
facet normal -0.9238795325112884 -0.3826834323650857 -1.385963185930512e-18
  outer loop
    vertex -31.87166621830082 -20.414685702961357 10.010000000000003
    vertex -31.42211431702999 -21.500000000000014 8.010000000000005
    vertex -31.42211431702999 -21.500000000000014 10.010000000000003
  endloop
endfacet
facet normal -0.9238795325112884 -0.3826834323650857 -1.385963185930512e-18
  outer loop
    vertex -31.42211431702999 -21.500000000000014 8.010000000000005
    vertex -31.87166621830082 -20.414685702961357 10.010000000000003
    vertex -31.87166621830082 -20.414685702961357 8.010000000000005
  endloop
endfacet
facet normal -0.9914448613738103 -0.1305261922200541 2.2825241635108562e-18
  outer loop
    vertex -32.02500000000001 -19.250000000000014 10.010000000000003
    vertex -31.87166621830082 -20.414685702961357 8.010000000000005
    vertex -31.87166621830082 -20.414685702961357 10.010000000000003
  endloop
endfacet
facet normal -0.9914448613738103 -0.1305261922200541 2.2825241635108562e-18
  outer loop
    vertex -31.87166621830082 -20.414685702961357 8.010000000000005
    vertex -32.02500000000001 -19.250000000000014 10.010000000000003
    vertex -32.02500000000001 -19.250000000000014 8.010000000000005
  endloop
endfacet
facet normal 0.6087614290087217 0.7933533402912345 -1.06454700615451e-17
  outer loop
    vertex -17.27500000000001 -11.352885682970044 10.010000000000003
    vertex -16.343019484660548 -12.068019484660551 8.010000000000005
    vertex -17.27500000000001 -11.352885682970044 8.010000000000005
  endloop
endfacet
facet normal 0.6087614290087217 0.7933533402912345 -1.06454700615451e-17
  outer loop
    vertex -16.343019484660548 -12.068019484660551 8.010000000000005
    vertex -17.27500000000001 -11.352885682970044 10.010000000000003
    vertex -16.343019484660548 -12.068019484660551 10.010000000000003
  endloop
endfacet
facet normal 0.3826834323650898 0.9238795325112867 6.6920222408394666e-18
  outer loop
    vertex -18.36031429703867 -10.90333378169921 10.010000000000003
    vertex -17.27500000000001 -11.352885682970044 8.010000000000005
    vertex -18.36031429703867 -10.90333378169921 8.010000000000005
  endloop
endfacet
facet normal 0.3826834323650898 0.9238795325112867 6.6920222408394666e-18
  outer loop
    vertex -17.27500000000001 -11.352885682970044 8.010000000000005
    vertex -18.36031429703867 -10.90333378169921 10.010000000000003
    vertex -17.27500000000001 -11.352885682970044 10.010000000000003
  endloop
endfacet
facet normal 2.9444033441064167e-33 -6.768346521805999e-32 1.0
  outer loop
    vertex -31.87166621830082 -20.414685702961357 10.010000000000003
    vertex -32.025000000000006 -15.25000000000001 10.010000000000003
    vertex -32.02500000000001 -19.250000000000014 10.010000000000003
  endloop
endfacet
facet normal 2.9444033441064167e-33 -6.768346521805999e-32 1.0
  outer loop
    vertex -32.025000000000006 -15.25000000000001 10.010000000000003
    vertex -31.87166621830082 -20.414685702961357 10.010000000000003
    vertex -31.871666218300813 -14.085314297038664 10.010000000000003
  endloop
endfacet
facet normal 2.9444033441064167e-33 -6.768346521805999e-32 1.0
  outer loop
    vertex -31.871666218300813 -14.085314297038664 10.010000000000003
    vertex -31.87166621830082 -20.414685702961357 10.010000000000003
    vertex -31.42211431702999 -21.500000000000014 10.010000000000003
  endloop
endfacet
facet normal 2.9444033441064167e-33 -6.768346521805999e-32 1.0
  outer loop
    vertex -31.871666218300813 -14.085314297038664 10.010000000000003
    vertex -31.42211431702999 -21.500000000000014 10.010000000000003
    vertex -31.42211431702998 -13.00000000000001 10.010000000000003
  endloop
endfacet
facet normal 2.9444033441064167e-33 -6.768346521805999e-32 1.0
  outer loop
    vertex -31.42211431702998 -13.00000000000001 10.010000000000003
    vertex -31.42211431702999 -21.500000000000014 10.010000000000003
    vertex -30.706980515339477 -22.43198051533948 10.010000000000003
  endloop
endfacet
facet normal 2.9444033441064167e-33 -6.768346521805999e-32 1.0
  outer loop
    vertex -31.42211431702998 -13.00000000000001 10.010000000000003
    vertex -30.706980515339477 -22.43198051533948 10.010000000000003
    vertex -30.706980515339467 -12.068019484660546 10.010000000000003
  endloop
endfacet
facet normal 2.9444033441064167e-33 -6.768346521805999e-32 1.0
  outer loop
    vertex -30.706980515339467 -12.068019484660546 10.010000000000003
    vertex -30.706980515339477 -22.43198051533948 10.010000000000003
    vertex -29.775000000000013 -23.14711431702999 10.010000000000003
  endloop
endfacet
facet normal 2.9444033441064167e-33 -6.768346521805999e-32 1.0
  outer loop
    vertex -30.706980515339467 -12.068019484660546 10.010000000000003
    vertex -29.775000000000013 -23.14711431702999 10.010000000000003
    vertex -29.774999999999995 -11.352885682970033 10.010000000000003
  endloop
endfacet
facet normal 2.9444033441064167e-33 -6.768346521805999e-32 1.0
  outer loop
    vertex -29.774999999999995 -11.352885682970033 10.010000000000003
    vertex -29.775000000000013 -23.14711431702999 10.010000000000003
    vertex -29.525000000000013 -19.250000000000014 10.010000000000003
  endloop
endfacet
facet normal 2.9444033441064167e-33 -6.768346521805999e-32 1.0
  outer loop
    vertex -29.525000000000013 -19.250000000000014 10.010000000000003
    vertex -29.775000000000013 -23.14711431702999 10.010000000000003
    vertex -29.45685165257815 -19.767638090205054 10.010000000000003
  endloop
endfacet
facet normal 2.9444033441064167e-33 -6.768346521805999e-32 1.0
  outer loop
    vertex -29.45685165257815 -19.767638090205054 10.010000000000003
    vertex -29.775000000000013 -23.14711431702999 10.010000000000003
    vertex -28.68968570296136 -23.596666218300822 10.010000000000003
  endloop
endfacet
facet normal 2.9444033441064167e-33 -6.768346521805999e-32 1.0
  outer loop
    vertex -29.45685165257815 -19.767638090205054 10.010000000000003
    vertex -28.68968570296136 -23.596666218300822 10.010000000000003
    vertex -29.25705080756889 -20.250000000000014 10.010000000000003
  endloop
endfacet
facet normal 2.9444033441064167e-33 -6.768346521805999e-32 1.0
  outer loop
    vertex -29.25705080756889 -20.250000000000014 10.010000000000003
    vertex -28.68968570296136 -23.596666218300822 10.010000000000003
    vertex -28.93921356237311 -20.66421356237311 10.010000000000003
  endloop
endfacet
facet normal 2.9444033441064167e-33 -6.768346521805999e-32 1.0
  outer loop
    vertex -28.93921356237311 -20.66421356237311 10.010000000000003
    vertex -28.68968570296136 -23.596666218300822 10.010000000000003
    vertex -28.525000000000016 -20.982050807568893 10.010000000000003
  endloop
endfacet
facet normal 2.9444033441064167e-33 -6.768346521805999e-32 1.0
  outer loop
    vertex -28.525000000000016 -20.982050807568893 10.010000000000003
    vertex -28.68968570296136 -23.596666218300822 10.010000000000003
    vertex -27.525000000000013 -23.750000000000014 10.010000000000003
  endloop
endfacet
facet normal 2.9444033441064167e-33 -6.768346521805999e-32 1.0
  outer loop
    vertex -28.525000000000016 -20.982050807568893 10.010000000000003
    vertex -27.525000000000013 -23.750000000000014 10.010000000000003
    vertex -28.042638090205052 -21.18185165257815 10.010000000000003
  endloop
endfacet
facet normal 2.9444033441064167e-33 -6.768346521805999e-32 1.0
  outer loop
    vertex -28.042638090205052 -21.18185165257815 10.010000000000003
    vertex -27.525000000000013 -23.750000000000014 10.010000000000003
    vertex -27.525000000000013 -21.25000000000001 10.010000000000003
  endloop
endfacet
facet normal 2.9444033441064167e-33 -6.768346521805999e-32 1.0
  outer loop
    vertex -27.525000000000013 -21.25000000000001 10.010000000000003
    vertex -27.525000000000013 -23.750000000000014 10.010000000000003
    vertex -19.525000000000002 -23.750000000000014 10.010000000000003
  endloop
endfacet
facet normal 2.9444033441064167e-33 -6.768346521805999e-32 1.0
  outer loop
    vertex -27.525000000000013 -21.25000000000001 10.010000000000003
    vertex -19.525000000000002 -23.750000000000014 10.010000000000003
    vertex -19.525000000000013 -21.25000000000001 10.010000000000003
  endloop
endfacet
facet normal 2.9444033441064167e-33 -6.768346521805999e-32 1.0
  outer loop
    vertex -19.525000000000013 -21.25000000000001 10.010000000000003
    vertex -19.525000000000002 -23.750000000000014 10.010000000000003
    vertex -19.007361909794973 -21.18185165257815 10.010000000000003
  endloop
endfacet
facet normal 2.9444033441064167e-33 -6.768346521805999e-32 1.0
  outer loop
    vertex -19.007361909794973 -21.18185165257815 10.010000000000003
    vertex -19.525000000000002 -23.750000000000014 10.010000000000003
    vertex -18.360314297038663 -23.59666621830082 10.010000000000003
  endloop
endfacet
facet normal 2.9444033441064167e-33 -6.768346521805999e-32 1.0
  outer loop
    vertex -19.007361909794973 -21.18185165257815 10.010000000000003
    vertex -18.360314297038663 -23.59666621830082 10.010000000000003
    vertex -18.525000000000013 -20.98205080756889 10.010000000000003
  endloop
endfacet
facet normal 2.9444033441064167e-33 -6.768346521805999e-32 1.0
  outer loop
    vertex -18.525000000000013 -20.98205080756889 10.010000000000003
    vertex -18.360314297038663 -23.59666621830082 10.010000000000003
    vertex -18.11078643762692 -20.664213562373106 10.010000000000003
  endloop
endfacet
facet normal 2.9444033441064167e-33 -6.768346521805999e-32 1.0
  outer loop
    vertex -18.11078643762692 -20.664213562373106 10.010000000000003
    vertex -18.360314297038663 -23.59666621830082 10.010000000000003
    vertex -17.27500000000001 -23.147114317029985 10.010000000000003
  endloop
endfacet
facet normal 2.9444033441064167e-33 -6.768346521805999e-32 1.0
  outer loop
    vertex -18.11078643762692 -20.664213562373106 10.010000000000003
    vertex -17.27500000000001 -23.147114317029985 10.010000000000003
    vertex -17.792949192431138 -20.25000000000001 10.010000000000003
  endloop
endfacet
facet normal 2.9444033441064167e-33 -6.768346521805999e-32 1.0
  outer loop
    vertex -17.792949192431138 -20.25000000000001 10.010000000000003
    vertex -17.27500000000001 -23.147114317029985 10.010000000000003
    vertex -17.59314834742188 -19.767638090205054 10.010000000000003
  endloop
endfacet
facet normal 2.9444033441064167e-33 -6.768346521805999e-32 1.0
  outer loop
    vertex -17.59314834742188 -19.767638090205054 10.010000000000003
    vertex -17.27500000000001 -23.147114317029985 10.010000000000003
    vertex -17.525000000000016 -19.250000000000014 10.010000000000003
  endloop
endfacet
facet normal 2.9444033441064167e-33 -6.768346521805999e-32 1.0
  outer loop
    vertex -17.525000000000016 -19.250000000000014 10.010000000000003
    vertex -17.27500000000001 -23.147114317029985 10.010000000000003
    vertex -17.525000000000013 -15.250000000000014 10.010000000000003
  endloop
endfacet
facet normal 2.9444033441064167e-33 -6.768346521805999e-32 1.0
  outer loop
    vertex -29.774999999999995 -11.352885682970033 10.010000000000003
    vertex -29.456851652578145 -14.732361909794971 10.010000000000003
    vertex -28.68968570296134 -10.903333781699205 10.010000000000003
  endloop
endfacet
facet normal 2.9444033441064167e-33 -6.768346521805999e-32 1.0
  outer loop
    vertex -29.456851652578145 -14.732361909794971 10.010000000000003
    vertex -29.774999999999995 -11.352885682970033 10.010000000000003
    vertex -29.52500000000001 -15.250000000000014 10.010000000000003
  endloop
endfacet
facet normal 2.9444033441064167e-33 -6.768346521805999e-32 1.0
  outer loop
    vertex -29.52500000000001 -15.250000000000014 10.010000000000003
    vertex -29.774999999999995 -11.352885682970033 10.010000000000003
    vertex -29.525000000000013 -19.250000000000014 10.010000000000003
  endloop
endfacet
facet normal 2.9444033441064167e-33 -6.768346521805999e-32 1.0
  outer loop
    vertex -28.68968570296134 -10.903333781699205 10.010000000000003
    vertex -29.456851652578145 -14.732361909794971 10.010000000000003
    vertex -29.257050807568884 -14.250000000000014 10.010000000000003
  endloop
endfacet
facet normal 2.9444033441064167e-33 -6.768346521805999e-32 1.0
  outer loop
    vertex -28.68968570296134 -10.903333781699205 10.010000000000003
    vertex -29.257050807568884 -14.250000000000014 10.010000000000003
    vertex -28.939213562373098 -13.835786437626918 10.010000000000003
  endloop
endfacet
facet normal 2.9444033441064167e-33 -6.768346521805999e-32 1.0
  outer loop
    vertex -28.68968570296134 -10.903333781699205 10.010000000000003
    vertex -28.939213562373098 -13.835786437626918 10.010000000000003
    vertex -28.525000000000006 -13.51794919243114 10.010000000000003
  endloop
endfacet
facet normal 2.9444033441064167e-33 -6.768346521805999e-32 1.0
  outer loop
    vertex -28.68968570296134 -10.903333781699205 10.010000000000003
    vertex -28.525000000000006 -13.51794919243114 10.010000000000003
    vertex -27.524999999999995 -10.750000000000014 10.010000000000003
  endloop
endfacet
facet normal 2.9444033441064167e-33 -6.768346521805999e-32 1.0
  outer loop
    vertex -27.524999999999995 -10.750000000000014 10.010000000000003
    vertex -28.525000000000006 -13.51794919243114 10.010000000000003
    vertex -28.042638090205045 -13.318148347421879 10.010000000000003
  endloop
endfacet
facet normal 2.9444033441064167e-33 -6.768346521805999e-32 1.0
  outer loop
    vertex -27.524999999999995 -10.750000000000014 10.010000000000003
    vertex -28.042638090205045 -13.318148347421879 10.010000000000003
    vertex -27.525000000000006 -13.250000000000016 10.010000000000003
  endloop
endfacet
facet normal 2.9444033441064167e-33 -6.768346521805999e-32 1.0
  outer loop
    vertex -27.524999999999995 -10.750000000000014 10.010000000000003
    vertex -27.525000000000006 -13.250000000000016 10.010000000000003
    vertex -19.525000000000013 -13.250000000000016 10.010000000000003
  endloop
endfacet
facet normal 2.9444033441064167e-33 -6.768346521805999e-32 1.0
  outer loop
    vertex -27.524999999999995 -10.750000000000014 10.010000000000003
    vertex -19.525000000000013 -13.250000000000016 10.010000000000003
    vertex -19.525000000000013 -10.750000000000014 10.010000000000003
  endloop
endfacet
facet normal 2.9444033441064167e-33 -6.768346521805999e-32 1.0
  outer loop
    vertex -19.525000000000013 -10.750000000000014 10.010000000000003
    vertex -19.525000000000013 -13.250000000000016 10.010000000000003
    vertex -19.007361909794973 -13.318148347421879 10.010000000000003
  endloop
endfacet
facet normal 2.9444033441064167e-33 -6.768346521805999e-32 1.0
  outer loop
    vertex -19.525000000000013 -10.750000000000014 10.010000000000003
    vertex -19.007361909794973 -13.318148347421879 10.010000000000003
    vertex -18.36031429703867 -10.90333378169921 10.010000000000003
  endloop
endfacet
facet normal 2.9444033441064167e-33 -6.768346521805999e-32 1.0
  outer loop
    vertex -18.36031429703867 -10.90333378169921 10.010000000000003
    vertex -19.007361909794973 -13.318148347421879 10.010000000000003
    vertex -18.525000000000013 -13.51794919243114 10.010000000000003
  endloop
endfacet
facet normal 2.9444033441064167e-33 -6.768346521805999e-32 1.0
  outer loop
    vertex -18.36031429703867 -10.90333378169921 10.010000000000003
    vertex -18.525000000000013 -13.51794919243114 10.010000000000003
    vertex -18.110786437626917 -13.835786437626918 10.010000000000003
  endloop
endfacet
facet normal 2.9444033441064167e-33 -6.768346521805999e-32 1.0
  outer loop
    vertex -18.36031429703867 -10.90333378169921 10.010000000000003
    vertex -18.110786437626917 -13.835786437626918 10.010000000000003
    vertex -17.27500000000001 -11.352885682970044 10.010000000000003
  endloop
endfacet
facet normal 2.9444033441064167e-33 -6.768346521805999e-32 1.0
  outer loop
    vertex -17.27500000000001 -11.352885682970044 10.010000000000003
    vertex -18.110786437626917 -13.835786437626918 10.010000000000003
    vertex -17.792949192431138 -14.250000000000014 10.010000000000003
  endloop
endfacet
facet normal 2.9444033441064167e-33 -6.768346521805999e-32 1.0
  outer loop
    vertex -17.27500000000001 -11.352885682970044 10.010000000000003
    vertex -17.792949192431138 -14.250000000000014 10.010000000000003
    vertex -17.593148347421877 -14.732361909794971 10.010000000000003
  endloop
endfacet
facet normal 2.9444033441064167e-33 -6.768346521805999e-32 1.0
  outer loop
    vertex -17.27500000000001 -11.352885682970044 10.010000000000003
    vertex -17.593148347421877 -14.732361909794971 10.010000000000003
    vertex -17.525000000000013 -15.250000000000014 10.010000000000003
  endloop
endfacet
facet normal 2.9444033441064167e-33 -6.768346521805999e-32 1.0
  outer loop
    vertex -17.27500000000001 -11.352885682970044 10.010000000000003
    vertex -17.525000000000013 -15.250000000000014 10.010000000000003
    vertex -17.27500000000001 -23.147114317029985 10.010000000000003
  endloop
endfacet
facet normal 2.9444033441064167e-33 -6.768346521805999e-32 1.0
  outer loop
    vertex -17.27500000000001 -11.352885682970044 10.010000000000003
    vertex -17.27500000000001 -23.147114317029985 10.010000000000003
    vertex -16.343019484660548 -22.431980515339475 10.010000000000003
  endloop
endfacet
facet normal 2.9444033441064167e-33 -6.768346521805999e-32 1.0
  outer loop
    vertex -17.27500000000001 -11.352885682970044 10.010000000000003
    vertex -16.343019484660548 -22.431980515339475 10.010000000000003
    vertex -16.343019484660548 -12.068019484660551 10.010000000000003
  endloop
endfacet
facet normal 2.9444033441064167e-33 -6.768346521805999e-32 1.0
  outer loop
    vertex -16.343019484660548 -12.068019484660551 10.010000000000003
    vertex -16.343019484660548 -22.431980515339475 10.010000000000003
    vertex -15.627885682970042 -21.50000000000001 10.010000000000003
  endloop
endfacet
facet normal 2.9444033441064167e-33 -6.768346521805999e-32 1.0
  outer loop
    vertex -16.343019484660548 -12.068019484660551 10.010000000000003
    vertex -15.627885682970042 -21.50000000000001 10.010000000000003
    vertex -15.627885682970039 -13.000000000000016 10.010000000000003
  endloop
endfacet
facet normal 2.9444033441064167e-33 -6.768346521805999e-32 1.0
  outer loop
    vertex -15.627885682970039 -13.000000000000016 10.010000000000003
    vertex -15.627885682970042 -21.50000000000001 10.010000000000003
    vertex -15.178333781699207 -20.414685702961357 10.010000000000003
  endloop
endfacet
facet normal 2.9444033441064167e-33 -6.768346521805999e-32 1.0
  outer loop
    vertex -15.627885682970039 -13.000000000000016 10.010000000000003
    vertex -15.178333781699207 -20.414685702961357 10.010000000000003
    vertex -15.178333781699205 -14.08531429703867 10.010000000000003
  endloop
endfacet
facet normal 2.9444033441064167e-33 -6.768346521805999e-32 1.0
  outer loop
    vertex -15.178333781699205 -14.08531429703867 10.010000000000003
    vertex -15.178333781699207 -20.414685702961357 10.010000000000003
    vertex -15.025000000000015 -19.250000000000014 10.010000000000003
  endloop
endfacet
facet normal 2.9444033441064167e-33 -6.768346521805999e-32 1.0
  outer loop
    vertex -15.178333781699205 -14.08531429703867 10.010000000000003
    vertex -15.025000000000015 -19.250000000000014 10.010000000000003
    vertex -15.025000000000013 -15.250000000000014 10.010000000000003
  endloop
endfacet
facet normal 0.9914448613738105 0.13052619222005143 6.487323854318373e-32
  outer loop
    vertex -17.593148347421877 -14.732361909794971 10.010000000000003
    vertex -17.525000000000013 -15.250000000000014 14.010000000000003
    vertex -17.525000000000013 -15.250000000000014 10.010000000000003
  endloop
endfacet
facet normal 0.9914448613738105 0.13052619222005143 6.487323854318373e-32
  outer loop
    vertex -17.525000000000013 -15.250000000000014 14.010000000000003
    vertex -17.593148347421877 -14.732361909794971 10.010000000000003
    vertex -17.593148347421877 -14.732361909794971 14.010000000000003
  endloop
endfacet
facet normal 0.1305261922200517 0.9914448613738105 2.282524163510815e-18
  outer loop
    vertex -19.525000000000013 -10.750000000000014 10.010000000000003
    vertex -18.36031429703867 -10.90333378169921 8.010000000000005
    vertex -19.525000000000013 -10.750000000000014 8.010000000000005
  endloop
endfacet
facet normal 0.1305261922200517 0.9914448613738105 2.282524163510815e-18
  outer loop
    vertex -18.36031429703867 -10.90333378169921 8.010000000000005
    vertex -19.525000000000013 -10.750000000000014 10.010000000000003
    vertex -18.36031429703867 -10.90333378169921 10.010000000000003
  endloop
endfacet
facet normal -1.0 1.4099832412739481e-15 -1.4015605235591146e-45
  outer loop
    vertex -32.025000000000006 -15.25000000000001 10.010000000000003
    vertex -32.02500000000001 -19.250000000000014 8.010000000000005
    vertex -32.02500000000001 -19.250000000000014 10.010000000000003
  endloop
endfacet
facet normal -1.0 1.4099832412739481e-15 -1.4015605235591146e-45
  outer loop
    vertex -32.02500000000001 -19.250000000000014 8.010000000000005
    vertex -32.025000000000006 -15.25000000000001 10.010000000000003
    vertex -32.025000000000006 -15.25000000000001 8.010000000000005
  endloop
endfacet
facet normal -0.9914448613738103 0.13052619222005374 0.0
  outer loop
    vertex -31.871666218300813 -14.085314297038664 10.010000000000003
    vertex -32.025000000000006 -15.25000000000001 8.010000000000005
    vertex -32.025000000000006 -15.25000000000001 10.010000000000003
  endloop
endfacet
facet normal -0.9914448613738103 0.13052619222005374 0.0
  outer loop
    vertex -32.025000000000006 -15.25000000000001 8.010000000000005
    vertex -31.871666218300813 -14.085314297038664 10.010000000000003
    vertex -31.871666218300813 -14.085314297038664 8.010000000000005
  endloop
endfacet
facet normal -0.9238795325112865 0.3826834323650908 0.0
  outer loop
    vertex -31.42211431702998 -13.00000000000001 10.010000000000003
    vertex -31.871666218300813 -14.085314297038664 8.010000000000005
    vertex -31.871666218300813 -14.085314297038664 10.010000000000003
  endloop
endfacet
facet normal -0.9238795325112865 0.3826834323650908 0.0
  outer loop
    vertex -31.871666218300813 -14.085314297038664 8.010000000000005
    vertex -31.42211431702998 -13.00000000000001 10.010000000000003
    vertex -31.42211431702998 -13.00000000000001 8.010000000000005
  endloop
endfacet
facet normal -0.608761429008718 0.7933533402912372 1.0645470061542432e-17
  outer loop
    vertex -30.706980515339467 -12.068019484660546 10.010000000000003
    vertex -29.774999999999995 -11.352885682970033 8.010000000000005
    vertex -30.706980515339467 -12.068019484660546 8.010000000000005
  endloop
endfacet
facet normal -0.608761429008718 0.7933533402912372 1.0645470061542432e-17
  outer loop
    vertex -29.774999999999995 -11.352885682970033 8.010000000000005
    vertex -30.706980515339467 -12.068019484660546 10.010000000000003
    vertex -29.774999999999995 -11.352885682970033 10.010000000000003
  endloop
endfacet
facet normal 0.0 1.0 0.0
  outer loop
    vertex -27.524999999999995 -10.750000000000014 10.010000000000003
    vertex -19.525000000000013 -10.750000000000014 8.010000000000005
    vertex -27.524999999999995 -10.750000000000014 8.010000000000005
  endloop
endfacet
facet normal 0.0 1.0 0.0
  outer loop
    vertex -19.525000000000013 -10.750000000000014 8.010000000000005
    vertex -27.524999999999995 -10.750000000000014 10.010000000000003
    vertex -19.525000000000013 -10.750000000000014 10.010000000000003
  endloop
endfacet
facet normal -0.7933533402912344 0.6087614290087219 0.0
  outer loop
    vertex -30.706980515339467 -12.068019484660546 10.010000000000003
    vertex -31.42211431702998 -13.00000000000001 8.010000000000005
    vertex -31.42211431702998 -13.00000000000001 10.010000000000003
  endloop
endfacet
facet normal -0.7933533402912344 0.6087614290087219 0.0
  outer loop
    vertex -31.42211431702998 -13.00000000000001 8.010000000000005
    vertex -30.706980515339467 -12.068019484660546 10.010000000000003
    vertex -30.706980515339467 -12.068019484660546 8.010000000000005
  endloop
endfacet
facet normal -0.130526192220049 0.9914448613738107 0.0
  outer loop
    vertex -28.68968570296134 -10.903333781699205 10.010000000000003
    vertex -27.524999999999995 -10.750000000000014 8.010000000000005
    vertex -28.68968570296134 -10.903333781699205 8.010000000000005
  endloop
endfacet
facet normal -0.130526192220049 0.9914448613738107 0.0
  outer loop
    vertex -27.524999999999995 -10.750000000000014 8.010000000000005
    vertex -28.68968570296134 -10.903333781699205 10.010000000000003
    vertex -27.524999999999995 -10.750000000000014 10.010000000000003
  endloop
endfacet
facet normal -0.3826834323650886 0.9238795325112873 6.692022240840745e-18
  outer loop
    vertex -29.774999999999995 -11.352885682970033 10.010000000000003
    vertex -28.68968570296134 -10.903333781699205 8.010000000000005
    vertex -29.774999999999995 -11.352885682970033 8.010000000000005
  endloop
endfacet
facet normal -0.3826834323650886 0.9238795325112873 6.692022240840745e-18
  outer loop
    vertex -28.68968570296134 -10.903333781699205 8.010000000000005
    vertex -29.774999999999995 -11.352885682970033 10.010000000000003
    vertex -28.68968570296134 -10.903333781699205 10.010000000000003
  endloop
endfacet
facet normal -0.3826834323650921 0.923879532511286 -3.0431793860948793e-30
  outer loop
    vertex -23.0720666710706 -18.940370196005887 11.010000000000003
    vertex -22.650000000000013 -18.765544456622784 8.010000000000003
    vertex -23.0720666710706 -18.940370196005887 8.010000000000003
  endloop
endfacet
facet normal -0.3826834323650921 0.923879532511286 -3.0431793860948793e-30
  outer loop
    vertex -22.650000000000013 -18.765544456622784 8.010000000000003
    vertex -23.0720666710706 -18.940370196005887 11.010000000000003
    vertex -22.650000000000013 -18.765544456622784 11.010000000000003
  endloop
endfacet
facet normal -0.13052619222004852 0.9914448613738109 0.0
  outer loop
    vertex -23.525000000000013 -19.000000000000014 11.010000000000003
    vertex -23.0720666710706 -18.940370196005887 8.010000000000003
    vertex -23.525000000000013 -19.000000000000014 8.010000000000003
  endloop
endfacet
facet normal -0.13052619222004852 0.9914448613738109 0.0
  outer loop
    vertex -23.0720666710706 -18.940370196005887 8.010000000000003
    vertex -23.525000000000013 -19.000000000000014 11.010000000000003
    vertex -23.0720666710706 -18.940370196005887 11.010000000000003
  endloop
endfacet
facet normal 0.6087614290087177 0.7933533402912375 4.840999309428113e-30
  outer loop
    vertex -24.762436867076474 -18.487436867076475 11.010000000000003
    vertex -24.400000000000013 -18.765544456622784 8.010000000000003
    vertex -24.762436867076474 -18.487436867076475 8.010000000000003
  endloop
endfacet
facet normal 0.6087614290087177 0.7933533402912375 4.840999309428113e-30
  outer loop
    vertex -24.400000000000013 -18.765544456622784 8.010000000000003
    vertex -24.762436867076474 -18.487436867076475 11.010000000000003
    vertex -24.400000000000013 -18.765544456622784 11.010000000000003
  endloop
endfacet
facet normal -0.6087614290087177 -0.7933533402912375 -4.840999309428113e-30
  outer loop
    vertex -22.28756313292355 -16.012563132923553 11.010000000000003
    vertex -22.650000000000013 -15.734455543377244 8.010000000000003
    vertex -22.28756313292355 -16.012563132923553 8.010000000000003
  endloop
endfacet
facet normal -0.6087614290087177 -0.7933533402912375 -4.840999309428113e-30
  outer loop
    vertex -22.650000000000013 -15.734455543377244 8.010000000000003
    vertex -22.28756313292355 -16.012563132923553 11.010000000000003
    vertex -22.650000000000013 -15.734455543377244 11.010000000000003
  endloop
endfacet
facet normal 0.923879532511286 0.3826834323650921 -3.0431793860948793e-30
  outer loop
    vertex -25.215370196005885 -17.702933328929426 8.010000000000003
    vertex -25.040544456622783 -18.125000000000014 11.010000000000003
    vertex -25.040544456622783 -18.125000000000014 8.010000000000003
  endloop
endfacet
facet normal 0.923879532511286 0.3826834323650921 -3.0431793860948793e-30
  outer loop
    vertex -25.040544456622783 -18.125000000000014 11.010000000000003
    vertex -25.215370196005885 -17.702933328929426 8.010000000000003
    vertex -25.215370196005885 -17.702933328929426 11.010000000000003
  endloop
endfacet
facet normal -0.7933533402912375 -0.6087614290087177 -4.840999309428113e-30
  outer loop
    vertex -22.28756313292355 -16.012563132923553 11.010000000000003
    vertex -22.009455543377243 -16.37500000000001 8.010000000000003
    vertex -22.009455543377243 -16.37500000000001 11.010000000000003
  endloop
endfacet
facet normal -0.7933533402912375 -0.6087614290087177 -4.840999309428113e-30
  outer loop
    vertex -22.009455543377243 -16.37500000000001 8.010000000000003
    vertex -22.28756313292355 -16.012563132923553 11.010000000000003
    vertex -22.28756313292355 -16.012563132923553 8.010000000000003
  endloop
endfacet
facet normal 0.38268343236509217 0.923879532511286 -3.0431793860948797e-30
  outer loop
    vertex -24.400000000000013 -18.765544456622784 11.010000000000003
    vertex -23.977933328929424 -18.940370196005887 8.010000000000003
    vertex -24.400000000000013 -18.765544456622784 8.010000000000003
  endloop
endfacet
facet normal 0.38268343236509217 0.923879532511286 -3.0431793860948797e-30
  outer loop
    vertex -23.977933328929424 -18.940370196005887 8.010000000000003
    vertex -24.400000000000013 -18.765544456622784 11.010000000000003
    vertex -23.977933328929424 -18.940370196005887 11.010000000000003
  endloop
endfacet
facet normal -0.6087614290087177 0.7933533402912375 -4.840999309428113e-30
  outer loop
    vertex -22.650000000000013 -18.765544456622784 11.010000000000003
    vertex -22.28756313292355 -18.487436867076475 8.010000000000003
    vertex -22.650000000000013 -18.765544456622784 8.010000000000003
  endloop
endfacet
facet normal -0.6087614290087177 0.7933533402912375 -4.840999309428113e-30
  outer loop
    vertex -22.28756313292355 -18.487436867076475 8.010000000000003
    vertex -22.650000000000013 -18.765544456622784 11.010000000000003
    vertex -22.28756313292355 -18.487436867076475 11.010000000000003
  endloop
endfacet
facet normal -0.99144486137381 -0.13052619222005457 7.884178695522994e-30
  outer loop
    vertex -21.834629803994144 -16.797066671070603 11.010000000000003
    vertex -21.77500000000001 -17.250000000000014 8.010000000000003
    vertex -21.77500000000001 -17.250000000000014 11.010000000000003
  endloop
endfacet
facet normal -0.99144486137381 -0.13052619222005457 7.884178695522994e-30
  outer loop
    vertex -21.77500000000001 -17.250000000000014 8.010000000000003
    vertex -21.834629803994144 -16.797066671070603 11.010000000000003
    vertex -21.834629803994144 -16.797066671070603 8.010000000000003
  endloop
endfacet
facet normal -0.9914448613738109 0.13052619222004852 0.0
  outer loop
    vertex -21.77500000000001 -17.250000000000014 11.010000000000003
    vertex -21.83462980399414 -17.702933328929426 8.010000000000003
    vertex -21.83462980399414 -17.702933328929426 11.010000000000003
  endloop
endfacet
facet normal -0.9914448613738109 0.13052619222004852 0.0
  outer loop
    vertex -21.83462980399414 -17.702933328929426 8.010000000000003
    vertex -21.77500000000001 -17.250000000000014 11.010000000000003
    vertex -21.77500000000001 -17.250000000000014 8.010000000000003
  endloop
endfacet
facet normal -0.923879532511286 0.38268343236509217 -3.0431793860948797e-30
  outer loop
    vertex -21.83462980399414 -17.702933328929426 11.010000000000003
    vertex -22.009455543377243 -18.125000000000014 8.010000000000003
    vertex -22.009455543377243 -18.125000000000014 11.010000000000003
  endloop
endfacet
facet normal -0.923879532511286 0.38268343236509217 -3.0431793860948797e-30
  outer loop
    vertex -22.009455543377243 -18.125000000000014 8.010000000000003
    vertex -21.83462980399414 -17.702933328929426 11.010000000000003
    vertex -21.83462980399414 -17.702933328929426 8.010000000000003
  endloop
endfacet
facet normal -0.13052619222004852 -0.9914448613738109 0.0
  outer loop
    vertex -23.0720666710706 -15.55962980399414 11.010000000000003
    vertex -23.525000000000013 -15.50000000000001 8.010000000000003
    vertex -23.0720666710706 -15.55962980399414 8.010000000000003
  endloop
endfacet
facet normal -0.13052619222004852 -0.9914448613738109 0.0
  outer loop
    vertex -23.525000000000013 -15.50000000000001 8.010000000000003
    vertex -23.0720666710706 -15.55962980399414 11.010000000000003
    vertex -23.525000000000013 -15.50000000000001 11.010000000000003
  endloop
endfacet
facet normal -0.7933533402912375 0.6087614290087177 -4.840999309428113e-30
  outer loop
    vertex -22.009455543377243 -18.125000000000014 11.010000000000003
    vertex -22.28756313292355 -18.487436867076475 8.010000000000003
    vertex -22.28756313292355 -18.487436867076475 11.010000000000003
  endloop
endfacet
facet normal -0.7933533402912375 0.6087614290087177 -4.840999309428113e-30
  outer loop
    vertex -22.28756313292355 -18.487436867076475 8.010000000000003
    vertex -22.009455543377243 -18.125000000000014 11.010000000000003
    vertex -22.009455543377243 -18.125000000000014 8.010000000000003
  endloop
endfacet
facet normal 0.6087614290087215 -0.7933533402912345 -1.1149912439381642e-29
  outer loop
    vertex -24.400000000000013 -15.734455543377244 11.010000000000003
    vertex -24.762436867076474 -16.012563132923557 8.010000000000003
    vertex -24.400000000000013 -15.734455543377244 8.010000000000003
  endloop
endfacet
facet normal 0.6087614290087215 -0.7933533402912345 -1.1149912439381642e-29
  outer loop
    vertex -24.762436867076474 -16.012563132923557 8.010000000000003
    vertex -24.400000000000013 -15.734455543377244 11.010000000000003
    vertex -24.762436867076474 -16.012563132923557 11.010000000000003
  endloop
endfacet
facet normal 0.38268343236508684 -0.9238795325112881 -4.3037055605496145e-30
  outer loop
    vertex -23.977933328929424 -15.559629803994143 11.010000000000003
    vertex -24.400000000000013 -15.734455543377244 8.010000000000003
    vertex -23.977933328929424 -15.559629803994143 8.010000000000003
  endloop
endfacet
facet normal 0.38268343236508684 -0.9238795325112881 -4.3037055605496145e-30
  outer loop
    vertex -24.400000000000013 -15.734455543377244 8.010000000000003
    vertex -23.977933328929424 -15.559629803994143 11.010000000000003
    vertex -24.400000000000013 -15.734455543377244 11.010000000000003
  endloop
endfacet
facet normal -0.9238795325112881 -0.3826834323650868 -1.039006433273929e-29
  outer loop
    vertex -22.009455543377243 -16.37500000000001 11.010000000000003
    vertex -21.834629803994144 -16.797066671070603 8.010000000000003
    vertex -21.834629803994144 -16.797066671070603 11.010000000000003
  endloop
endfacet
facet normal -0.9238795325112881 -0.3826834323650868 -1.039006433273929e-29
  outer loop
    vertex -21.834629803994144 -16.797066671070603 8.010000000000003
    vertex -22.009455543377243 -16.37500000000001 11.010000000000003
    vertex -22.009455543377243 -16.37500000000001 8.010000000000003
  endloop
endfacet
facet normal -0.38268343236509217 -0.923879532511286 -3.0431793860948797e-30
  outer loop
    vertex -22.650000000000013 -15.734455543377244 11.010000000000003
    vertex -23.0720666710706 -15.55962980399414 8.010000000000003
    vertex -22.650000000000013 -15.734455543377244 8.010000000000003
  endloop
endfacet
facet normal -0.38268343236509217 -0.923879532511286 -3.0431793860948797e-30
  outer loop
    vertex -23.0720666710706 -15.55962980399414 8.010000000000003
    vertex -22.650000000000013 -15.734455543377244 11.010000000000003
    vertex -23.0720666710706 -15.55962980399414 11.010000000000003
  endloop
endfacet
facet normal 0.13052619222005457 -0.99144486137381 7.884178695522994e-30
  outer loop
    vertex -23.525000000000013 -15.50000000000001 11.010000000000003
    vertex -23.977933328929424 -15.559629803994143 8.010000000000003
    vertex -23.525000000000013 -15.50000000000001 8.010000000000003
  endloop
endfacet
facet normal 0.13052619222005457 -0.99144486137381 7.884178695522994e-30
  outer loop
    vertex -23.977933328929424 -15.559629803994143 8.010000000000003
    vertex -23.525000000000013 -15.50000000000001 11.010000000000003
    vertex -23.977933328929424 -15.559629803994143 11.010000000000003
  endloop
endfacet
facet normal 0.7933533402912353 -0.6087614290087205 0.0
  outer loop
    vertex -24.762436867076474 -16.012563132923557 8.010000000000003
    vertex -25.040544456622783 -16.37500000000001 11.010000000000003
    vertex -25.040544456622783 -16.37500000000001 8.010000000000003
  endloop
endfacet
facet normal 0.7933533402912353 -0.6087614290087205 0.0
  outer loop
    vertex -25.040544456622783 -16.37500000000001 11.010000000000003
    vertex -24.762436867076474 -16.012563132923557 8.010000000000003
    vertex -24.762436867076474 -16.012563132923557 11.010000000000003
  endloop
endfacet
facet normal 0.923879532511286 -0.38268343236509217 -3.0431793860948797e-30
  outer loop
    vertex -25.040544456622783 -16.37500000000001 8.010000000000003
    vertex -25.215370196005885 -16.797066671070603 11.010000000000003
    vertex -25.215370196005885 -16.797066671070603 8.010000000000003
  endloop
endfacet
facet normal 0.923879532511286 -0.38268343236509217 -3.0431793860948797e-30
  outer loop
    vertex -25.215370196005885 -16.797066671070603 11.010000000000003
    vertex -25.040544456622783 -16.37500000000001 8.010000000000003
    vertex -25.040544456622783 -16.37500000000001 11.010000000000003
  endloop
endfacet
facet normal 0.9914448613738109 -0.13052619222004852 0.0
  outer loop
    vertex -25.215370196005885 -16.797066671070603 8.010000000000003
    vertex -25.275000000000016 -17.250000000000014 11.010000000000003
    vertex -25.275000000000016 -17.250000000000014 8.010000000000003
  endloop
endfacet
facet normal 0.9914448613738109 -0.13052619222004852 0.0
  outer loop
    vertex -25.275000000000016 -17.250000000000014 11.010000000000003
    vertex -25.215370196005885 -16.797066671070603 8.010000000000003
    vertex -25.215370196005885 -16.797066671070603 11.010000000000003
  endloop
endfacet
facet normal 0.9914448613738109 0.13052619222004852 1.5768357391046002e-29
  outer loop
    vertex -25.275000000000016 -17.250000000000014 8.010000000000003
    vertex -25.215370196005885 -17.702933328929426 11.010000000000003
    vertex -25.215370196005885 -17.702933328929426 8.010000000000003
  endloop
endfacet
facet normal 0.9914448613738109 0.13052619222004852 1.5768357391046002e-29
  outer loop
    vertex -25.215370196005885 -17.702933328929426 11.010000000000003
    vertex -25.275000000000016 -17.250000000000014 8.010000000000003
    vertex -25.275000000000016 -17.250000000000014 11.010000000000003
  endloop
endfacet
facet normal 0.7933533402912375 0.6087614290087177 -4.840999309428113e-30
  outer loop
    vertex -25.040544456622783 -18.125000000000014 8.010000000000003
    vertex -24.762436867076474 -18.487436867076475 11.010000000000003
    vertex -24.762436867076474 -18.487436867076475 8.010000000000003
  endloop
endfacet
facet normal 0.7933533402912375 0.6087614290087177 -4.840999309428113e-30
  outer loop
    vertex -24.762436867076474 -18.487436867076475 11.010000000000003
    vertex -25.040544456622783 -18.125000000000014 8.010000000000003
    vertex -25.040544456622783 -18.125000000000014 11.010000000000003
  endloop
endfacet
facet normal 0.13052619222004852 0.9914448613738109 1.5768357391046002e-29
  outer loop
    vertex -23.977933328929424 -18.940370196005887 11.010000000000003
    vertex -23.525000000000013 -19.000000000000014 8.010000000000003
    vertex -23.977933328929424 -18.940370196005887 8.010000000000003
  endloop
endfacet
facet normal 0.13052619222004852 0.9914448613738109 1.5768357391046002e-29
  outer loop
    vertex -23.525000000000013 -19.000000000000014 8.010000000000003
    vertex -23.977933328929424 -18.940370196005887 11.010000000000003
    vertex -23.525000000000013 -19.000000000000014 11.010000000000003
  endloop
endfacet
facet normal -0.9914448613738105 -0.13052619222005143 -6.487323854318373e-32
  outer loop
    vertex -29.525000000000013 -19.250000000000014 14.010000000000003
    vertex -29.45685165257815 -19.767638090205054 10.010000000000003
    vertex -29.45685165257815 -19.767638090205054 14.010000000000003
  endloop
endfacet
facet normal -0.9914448613738105 -0.13052619222005143 -6.487323854318373e-32
  outer loop
    vertex -29.45685165257815 -19.767638090205054 10.010000000000003
    vertex -29.525000000000013 -19.250000000000014 14.010000000000003
    vertex -29.525000000000013 -19.250000000000014 10.010000000000003
  endloop
endfacet
facet normal -0.9238795325112862 -0.3826834323650913 1.6730055602103115e-18
  outer loop
    vertex -29.45685165257815 -19.767638090205054 14.010000000000003
    vertex -29.25705080756889 -20.250000000000014 10.010000000000003
    vertex -29.25705080756889 -20.250000000000014 14.010000000000003
  endloop
endfacet
facet normal -0.9238795325112862 -0.3826834323650913 1.6730055602103115e-18
  outer loop
    vertex -29.25705080756889 -20.250000000000014 10.010000000000003
    vertex -29.45685165257815 -19.767638090205054 14.010000000000003
    vertex -29.45685165257815 -19.767638090205054 10.010000000000003
  endloop
endfacet
facet normal -0.7933533402912374 -0.6087614290087179 0.0
  outer loop
    vertex -29.25705080756889 -20.250000000000014 14.010000000000003
    vertex -28.93921356237311 -20.66421356237311 10.010000000000003
    vertex -28.93921356237311 -20.66421356237311 14.010000000000003
  endloop
endfacet
facet normal -0.7933533402912374 -0.6087614290087179 0.0
  outer loop
    vertex -28.93921356237311 -20.66421356237311 10.010000000000003
    vertex -29.25705080756889 -20.250000000000014 14.010000000000003
    vertex -29.25705080756889 -20.250000000000014 10.010000000000003
  endloop
endfacet
facet normal 0.0 0.0 -1.0
  outer loop
    vertex -25.215370196005885 -16.797066671070603 11.010000000000003
    vertex -25.215370196005885 -17.702933328929426 11.010000000000003
    vertex -25.275000000000016 -17.250000000000014 11.010000000000003
  endloop
endfacet
facet normal 0.0 0.0 -1.0
  outer loop
    vertex -25.215370196005885 -17.702933328929426 11.010000000000003
    vertex -25.215370196005885 -16.797066671070603 11.010000000000003
    vertex -25.040544456622783 -16.37500000000001 11.010000000000003
  endloop
endfacet
facet normal 0.0 0.0 -1.0
  outer loop
    vertex -25.215370196005885 -17.702933328929426 11.010000000000003
    vertex -25.040544456622783 -16.37500000000001 11.010000000000003
    vertex -25.040544456622783 -18.125000000000014 11.010000000000003
  endloop
endfacet
facet normal 0.0 0.0 -1.0
  outer loop
    vertex -25.040544456622783 -18.125000000000014 11.010000000000003
    vertex -25.040544456622783 -16.37500000000001 11.010000000000003
    vertex -24.762436867076474 -16.012563132923557 11.010000000000003
  endloop
endfacet
facet normal 0.0 0.0 -1.0
  outer loop
    vertex -25.040544456622783 -18.125000000000014 11.010000000000003
    vertex -24.762436867076474 -16.012563132923557 11.010000000000003
    vertex -24.762436867076474 -18.487436867076475 11.010000000000003
  endloop
endfacet
facet normal 0.0 0.0 -1.0
  outer loop
    vertex -24.762436867076474 -18.487436867076475 11.010000000000003
    vertex -24.762436867076474 -16.012563132923557 11.010000000000003
    vertex -24.400000000000013 -15.734455543377244 11.010000000000003
  endloop
endfacet
facet normal 0.0 0.0 -1.0
  outer loop
    vertex -24.762436867076474 -18.487436867076475 11.010000000000003
    vertex -24.400000000000013 -15.734455543377244 11.010000000000003
    vertex -24.400000000000013 -18.765544456622784 11.010000000000003
  endloop
endfacet
facet normal 0.0 0.0 -1.0
  outer loop
    vertex -24.400000000000013 -18.765544456622784 11.010000000000003
    vertex -24.400000000000013 -15.734455543377244 11.010000000000003
    vertex -23.977933328929424 -15.559629803994143 11.010000000000003
  endloop
endfacet
facet normal 0.0 0.0 -1.0
  outer loop
    vertex -24.400000000000013 -18.765544456622784 11.010000000000003
    vertex -23.977933328929424 -15.559629803994143 11.010000000000003
    vertex -23.977933328929424 -18.940370196005887 11.010000000000003
  endloop
endfacet
facet normal 0.0 0.0 -1.0
  outer loop
    vertex -23.977933328929424 -18.940370196005887 11.010000000000003
    vertex -23.977933328929424 -15.559629803994143 11.010000000000003
    vertex -23.525000000000013 -15.50000000000001 11.010000000000003
  endloop
endfacet
facet normal 0.0 0.0 -1.0
  outer loop
    vertex -23.977933328929424 -18.940370196005887 11.010000000000003
    vertex -23.525000000000013 -15.50000000000001 11.010000000000003
    vertex -23.525000000000013 -19.000000000000014 11.010000000000003
  endloop
endfacet
facet normal 0.0 0.0 -1.0
  outer loop
    vertex -23.525000000000013 -19.000000000000014 11.010000000000003
    vertex -23.525000000000013 -15.50000000000001 11.010000000000003
    vertex -23.0720666710706 -15.55962980399414 11.010000000000003
  endloop
endfacet
facet normal 0.0 0.0 -1.0
  outer loop
    vertex -23.525000000000013 -19.000000000000014 11.010000000000003
    vertex -23.0720666710706 -15.55962980399414 11.010000000000003
    vertex -23.0720666710706 -18.940370196005887 11.010000000000003
  endloop
endfacet
facet normal 0.0 0.0 -1.0
  outer loop
    vertex -23.0720666710706 -18.940370196005887 11.010000000000003
    vertex -23.0720666710706 -15.55962980399414 11.010000000000003
    vertex -22.650000000000013 -15.734455543377244 11.010000000000003
  endloop
endfacet
facet normal 0.0 0.0 -1.0
  outer loop
    vertex -23.0720666710706 -18.940370196005887 11.010000000000003
    vertex -22.650000000000013 -15.734455543377244 11.010000000000003
    vertex -22.650000000000013 -18.765544456622784 11.010000000000003
  endloop
endfacet
facet normal 0.0 0.0 -1.0
  outer loop
    vertex -22.650000000000013 -18.765544456622784 11.010000000000003
    vertex -22.650000000000013 -15.734455543377244 11.010000000000003
    vertex -22.28756313292355 -16.012563132923553 11.010000000000003
  endloop
endfacet
facet normal 0.0 0.0 -1.0
  outer loop
    vertex -22.650000000000013 -18.765544456622784 11.010000000000003
    vertex -22.28756313292355 -16.012563132923553 11.010000000000003
    vertex -22.28756313292355 -18.487436867076475 11.010000000000003
  endloop
endfacet
facet normal 0.0 0.0 -1.0
  outer loop
    vertex -22.28756313292355 -18.487436867076475 11.010000000000003
    vertex -22.28756313292355 -16.012563132923553 11.010000000000003
    vertex -22.009455543377243 -16.37500000000001 11.010000000000003
  endloop
endfacet
facet normal 0.0 0.0 -1.0
  outer loop
    vertex -22.28756313292355 -18.487436867076475 11.010000000000003
    vertex -22.009455543377243 -16.37500000000001 11.010000000000003
    vertex -22.009455543377243 -18.125000000000014 11.010000000000003
  endloop
endfacet
facet normal 0.0 0.0 -1.0
  outer loop
    vertex -22.009455543377243 -18.125000000000014 11.010000000000003
    vertex -22.009455543377243 -16.37500000000001 11.010000000000003
    vertex -21.834629803994144 -16.797066671070603 11.010000000000003
  endloop
endfacet
facet normal 0.0 0.0 -1.0
  outer loop
    vertex -22.009455543377243 -18.125000000000014 11.010000000000003
    vertex -21.834629803994144 -16.797066671070603 11.010000000000003
    vertex -21.83462980399414 -17.702933328929426 11.010000000000003
  endloop
endfacet
facet normal 0.0 0.0 -1.0
  outer loop
    vertex -21.83462980399414 -17.702933328929426 11.010000000000003
    vertex -21.834629803994144 -16.797066671070603 11.010000000000003
    vertex -21.77500000000001 -17.250000000000014 11.010000000000003
  endloop
endfacet
facet normal -4.593325232198393e-32 -9.109596498888759e-32 1.0
  outer loop
    vertex -29.45685165257815 -19.767638090205054 14.010000000000003
    vertex -29.52500000000001 -15.250000000000014 14.010000000000003
    vertex -29.525000000000013 -19.250000000000014 14.010000000000003
  endloop
endfacet
facet normal -4.593325232198393e-32 -9.109596498888759e-32 1.0
  outer loop
    vertex -29.52500000000001 -15.250000000000014 14.010000000000003
    vertex -29.45685165257815 -19.767638090205054 14.010000000000003
    vertex -29.456851652578145 -14.732361909794971 14.010000000000003
  endloop
endfacet
facet normal -4.593325232198393e-32 -9.109596498888759e-32 1.0
  outer loop
    vertex -29.456851652578145 -14.732361909794971 14.010000000000003
    vertex -29.45685165257815 -19.767638090205054 14.010000000000003
    vertex -29.25705080756889 -20.250000000000014 14.010000000000003
  endloop
endfacet
facet normal -4.593325232198393e-32 -9.109596498888759e-32 1.0
  outer loop
    vertex -29.456851652578145 -14.732361909794971 14.010000000000003
    vertex -29.25705080756889 -20.250000000000014 14.010000000000003
    vertex -29.257050807568884 -14.250000000000014 14.010000000000003
  endloop
endfacet
facet normal -4.593325232198393e-32 -9.109596498888759e-32 1.0
  outer loop
    vertex -29.257050807568884 -14.250000000000014 14.010000000000003
    vertex -29.25705080756889 -20.250000000000014 14.010000000000003
    vertex -28.93921356237311 -20.66421356237311 14.010000000000003
  endloop
endfacet
facet normal -4.593325232198393e-32 -9.109596498888759e-32 1.0
  outer loop
    vertex -29.257050807568884 -14.250000000000014 14.010000000000003
    vertex -28.93921356237311 -20.66421356237311 14.010000000000003
    vertex -28.939213562373098 -13.835786437626918 14.010000000000003
  endloop
endfacet
facet normal -4.593325232198393e-32 -9.109596498888759e-32 1.0
  outer loop
    vertex -28.939213562373098 -13.835786437626918 14.010000000000003
    vertex -28.93921356237311 -20.66421356237311 14.010000000000003
    vertex -28.525000000000016 -20.982050807568893 14.010000000000003
  endloop
endfacet
facet normal -4.593325232198393e-32 -9.109596498888759e-32 1.0
  outer loop
    vertex -28.939213562373098 -13.835786437626918 14.010000000000003
    vertex -28.525000000000016 -20.982050807568893 14.010000000000003
    vertex -28.525000000000006 -13.51794919243114 14.010000000000003
  endloop
endfacet
facet normal -4.593325232198393e-32 -9.109596498888759e-32 1.0
  outer loop
    vertex -28.525000000000006 -13.51794919243114 14.010000000000003
    vertex -28.525000000000016 -20.982050807568893 14.010000000000003
    vertex -28.042638090205052 -21.18185165257815 14.010000000000003
  endloop
endfacet
facet normal -4.593325232198393e-32 -9.109596498888759e-32 1.0
  outer loop
    vertex -28.525000000000006 -13.51794919243114 14.010000000000003
    vertex -28.042638090205052 -21.18185165257815 14.010000000000003
    vertex -28.042638090205045 -13.318148347421879 14.010000000000003
  endloop
endfacet
facet normal -4.593325232198393e-32 -9.109596498888759e-32 1.0
  outer loop
    vertex -28.042638090205045 -13.318148347421879 14.010000000000003
    vertex -28.042638090205052 -21.18185165257815 14.010000000000003
    vertex -27.525000000000013 -21.25000000000001 14.010000000000003
  endloop
endfacet
facet normal -4.593325232198393e-32 -9.109596498888759e-32 1.0
  outer loop
    vertex -28.042638090205045 -13.318148347421879 14.010000000000003
    vertex -27.525000000000013 -21.25000000000001 14.010000000000003
    vertex -27.525000000000006 -13.250000000000016 14.010000000000003
  endloop
endfacet
facet normal -4.593325232198393e-32 -9.109596498888759e-32 1.0
  outer loop
    vertex -27.525000000000006 -13.250000000000016 14.010000000000003
    vertex -27.525000000000013 -21.25000000000001 14.010000000000003
    vertex -19.525000000000013 -21.25000000000001 14.010000000000003
  endloop
endfacet
facet normal -4.593325232198393e-32 -9.109596498888759e-32 1.0
  outer loop
    vertex -27.525000000000006 -13.250000000000016 14.010000000000003
    vertex -19.525000000000013 -21.25000000000001 14.010000000000003
    vertex -19.525000000000013 -13.250000000000016 14.010000000000003
  endloop
endfacet
facet normal -4.593325232198393e-32 -9.109596498888759e-32 1.0
  outer loop
    vertex -19.525000000000013 -13.250000000000016 14.010000000000003
    vertex -19.525000000000013 -21.25000000000001 14.010000000000003
    vertex -19.007361909794973 -21.18185165257815 14.010000000000003
  endloop
endfacet
facet normal -4.593325232198393e-32 -9.109596498888759e-32 1.0
  outer loop
    vertex -19.525000000000013 -13.250000000000016 14.010000000000003
    vertex -19.007361909794973 -21.18185165257815 14.010000000000003
    vertex -19.007361909794973 -13.318148347421879 14.010000000000003
  endloop
endfacet
facet normal -4.593325232198393e-32 -9.109596498888759e-32 1.0
  outer loop
    vertex -19.007361909794973 -13.318148347421879 14.010000000000003
    vertex -19.007361909794973 -21.18185165257815 14.010000000000003
    vertex -18.525000000000013 -20.98205080756889 14.010000000000003
  endloop
endfacet
facet normal -4.593325232198393e-32 -9.109596498888759e-32 1.0
  outer loop
    vertex -19.007361909794973 -13.318148347421879 14.010000000000003
    vertex -18.525000000000013 -20.98205080756889 14.010000000000003
    vertex -18.525000000000013 -13.51794919243114 14.010000000000003
  endloop
endfacet
facet normal -4.593325232198393e-32 -9.109596498888759e-32 1.0
  outer loop
    vertex -18.525000000000013 -13.51794919243114 14.010000000000003
    vertex -18.525000000000013 -20.98205080756889 14.010000000000003
    vertex -18.11078643762692 -20.664213562373106 14.010000000000003
  endloop
endfacet
facet normal -4.593325232198393e-32 -9.109596498888759e-32 1.0
  outer loop
    vertex -18.525000000000013 -13.51794919243114 14.010000000000003
    vertex -18.11078643762692 -20.664213562373106 14.010000000000003
    vertex -18.110786437626917 -13.835786437626918 14.010000000000003
  endloop
endfacet
facet normal -4.593325232198393e-32 -9.109596498888759e-32 1.0
  outer loop
    vertex -18.110786437626917 -13.835786437626918 14.010000000000003
    vertex -18.11078643762692 -20.664213562373106 14.010000000000003
    vertex -17.792949192431138 -20.25000000000001 14.010000000000003
  endloop
endfacet
facet normal -4.593325232198393e-32 -9.109596498888759e-32 1.0
  outer loop
    vertex -18.110786437626917 -13.835786437626918 14.010000000000003
    vertex -17.792949192431138 -20.25000000000001 14.010000000000003
    vertex -17.792949192431138 -14.250000000000014 14.010000000000003
  endloop
endfacet
facet normal -4.593325232198393e-32 -9.109596498888759e-32 1.0
  outer loop
    vertex -17.792949192431138 -14.250000000000014 14.010000000000003
    vertex -17.792949192431138 -20.25000000000001 14.010000000000003
    vertex -17.59314834742188 -19.767638090205054 14.010000000000003
  endloop
endfacet
facet normal -4.593325232198393e-32 -9.109596498888759e-32 1.0
  outer loop
    vertex -17.792949192431138 -14.250000000000014 14.010000000000003
    vertex -17.59314834742188 -19.767638090205054 14.010000000000003
    vertex -17.593148347421877 -14.732361909794971 14.010000000000003
  endloop
endfacet
facet normal -4.593325232198393e-32 -9.109596498888759e-32 1.0
  outer loop
    vertex -17.593148347421877 -14.732361909794971 14.010000000000003
    vertex -17.59314834742188 -19.767638090205054 14.010000000000003
    vertex -17.525000000000016 -19.250000000000014 14.010000000000003
  endloop
endfacet
facet normal -4.593325232198393e-32 -9.109596498888759e-32 1.0
  outer loop
    vertex -17.593148347421877 -14.732361909794971 14.010000000000003
    vertex -17.525000000000016 -19.250000000000014 14.010000000000003
    vertex -17.525000000000013 -15.250000000000014 14.010000000000003
  endloop
endfacet
facet normal -0.6087614290087213 -0.7933533402912347 3.4683616725072803e-18
  outer loop
    vertex -28.525000000000016 -20.982050807568893 14.010000000000003
    vertex -28.93921356237311 -20.66421356237311 10.010000000000003
    vertex -28.525000000000016 -20.982050807568893 10.010000000000003
  endloop
endfacet
facet normal -0.6087614290087213 -0.7933533402912347 3.4683616725072803e-18
  outer loop
    vertex -28.93921356237311 -20.66421356237311 10.010000000000003
    vertex -28.525000000000016 -20.982050807568893 14.010000000000003
    vertex -28.93921356237311 -20.66421356237311 14.010000000000003
  endloop
endfacet
facet normal -0.13052619222004683 -0.9914448613738112 -5.706310408773502e-19
  outer loop
    vertex -27.525000000000013 -21.25000000000001 14.010000000000003
    vertex -28.042638090205052 -21.18185165257815 10.010000000000003
    vertex -27.525000000000013 -21.25000000000001 10.010000000000003
  endloop
endfacet
facet normal -0.13052619222004683 -0.9914448613738112 -5.706310408773502e-19
  outer loop
    vertex -28.042638090205052 -21.18185165257815 10.010000000000003
    vertex -27.525000000000013 -21.25000000000001 14.010000000000003
    vertex -28.042638090205052 -21.18185165257815 14.010000000000003
  endloop
endfacet
facet normal -0.3826834323650876 -0.9238795325112878 0.0
  outer loop
    vertex -28.042638090205052 -21.18185165257815 14.010000000000003
    vertex -28.525000000000016 -20.982050807568893 10.010000000000003
    vertex -28.042638090205052 -21.18185165257815 10.010000000000003
  endloop
endfacet
facet normal -0.3826834323650876 -0.9238795325112878 0.0
  outer loop
    vertex -28.525000000000016 -20.982050807568893 10.010000000000003
    vertex -28.042638090205052 -21.18185165257815 14.010000000000003
    vertex -28.525000000000016 -20.982050807568893 14.010000000000003
  endloop
endfacet
facet normal 0.13052619222005674 -0.9914448613738098 -2.167186537799091e-18
  outer loop
    vertex -18.360314297038663 -23.59666621830082 10.010000000000003
    vertex -19.525000000000002 -23.750000000000014 8.010000000000005
    vertex -18.360314297038663 -23.59666621830082 8.010000000000005
  endloop
endfacet
facet normal 0.13052619222005674 -0.9914448613738098 -2.167186537799091e-18
  outer loop
    vertex -19.525000000000002 -23.750000000000014 8.010000000000005
    vertex -18.360314297038663 -23.59666621830082 10.010000000000003
    vertex -19.525000000000002 -23.750000000000014 10.010000000000003
  endloop
endfacet
facet normal -0.6087614290087204 -0.7933533402912354 -7.886141412441914e-31
  outer loop
    vertex -29.775000000000013 -23.14711431702999 10.010000000000003
    vertex -30.706980515339477 -22.43198051533948 8.010000000000005
    vertex -29.775000000000013 -23.14711431702999 8.010000000000005
  endloop
endfacet
facet normal -0.6087614290087204 -0.7933533402912354 -7.886141412441914e-31
  outer loop
    vertex -30.706980515339477 -22.43198051533948 8.010000000000005
    vertex -29.775000000000013 -23.14711431702999 10.010000000000003
    vertex -30.706980515339477 -22.43198051533948 10.010000000000003
  endloop
endfacet
facet normal -0.3826834323650908 -0.9238795325112865 -6.692022240839864e-18
  outer loop
    vertex -28.68968570296136 -23.596666218300822 10.010000000000003
    vertex -29.775000000000013 -23.14711431702999 8.010000000000005
    vertex -28.68968570296136 -23.596666218300822 8.010000000000005
  endloop
endfacet
facet normal -0.3826834323650908 -0.9238795325112865 -6.692022240839864e-18
  outer loop
    vertex -29.775000000000013 -23.14711431702999 8.010000000000005
    vertex -28.68968570296136 -23.596666218300822 10.010000000000003
    vertex -29.775000000000013 -23.14711431702999 10.010000000000003
  endloop
endfacet
facet normal -0.13052619222005138 -0.9914448613738105 -2.1671865377968616e-18
  outer loop
    vertex -27.525000000000013 -23.750000000000014 10.010000000000003
    vertex -28.68968570296136 -23.596666218300822 8.010000000000005
    vertex -27.525000000000013 -23.750000000000014 8.010000000000005
  endloop
endfacet
facet normal -0.13052619222005138 -0.9914448613738105 -2.1671865377968616e-18
  outer loop
    vertex -28.68968570296136 -23.596666218300822 8.010000000000005
    vertex -27.525000000000013 -23.750000000000014 10.010000000000003
    vertex -28.68968570296136 -23.596666218300822 10.010000000000003
  endloop
endfacet
facet normal 0.0 -1.0 0.0
  outer loop
    vertex -19.525000000000002 -23.750000000000014 10.010000000000003
    vertex -27.525000000000013 -23.750000000000014 8.010000000000005
    vertex -19.525000000000002 -23.750000000000014 8.010000000000005
  endloop
endfacet
facet normal 0.0 -1.0 0.0
  outer loop
    vertex -27.525000000000013 -23.750000000000014 8.010000000000005
    vertex -19.525000000000002 -23.750000000000014 10.010000000000003
    vertex -27.525000000000013 -23.750000000000014 10.010000000000003
  endloop
endfacet
facet normal 0.3826834323650916 -0.9238795325112862 3.80397423261861e-31
  outer loop
    vertex -17.27500000000001 -23.147114317029985 10.010000000000003
    vertex -18.360314297038663 -23.59666621830082 8.010000000000005
    vertex -17.27500000000001 -23.147114317029985 8.010000000000005
  endloop
endfacet
facet normal 0.3826834323650916 -0.9238795325112862 3.80397423261861e-31
  outer loop
    vertex -18.360314297038663 -23.59666621830082 8.010000000000005
    vertex -17.27500000000001 -23.147114317029985 10.010000000000003
    vertex -18.360314297038663 -23.59666621830082 10.010000000000003
  endloop
endfacet
facet normal 1.0 -7.049916206369741e-16 7.007802617795573e-46
  outer loop
    vertex -15.025000000000013 -15.250000000000014 8.010000000000005
    vertex -15.025000000000015 -19.250000000000014 10.010000000000003
    vertex -15.025000000000015 -19.250000000000014 8.010000000000005
  endloop
endfacet
facet normal 1.0 -7.049916206369741e-16 7.007802617795573e-46
  outer loop
    vertex -15.025000000000015 -19.250000000000014 10.010000000000003
    vertex -15.025000000000013 -15.250000000000014 8.010000000000005
    vertex -15.025000000000013 -15.250000000000014 10.010000000000003
  endloop
endfacet
facet normal 0.7933533402912354 0.6087614290087204 7.886141412441914e-31
  outer loop
    vertex -16.343019484660548 -12.068019484660551 8.010000000000005
    vertex -15.627885682970039 -13.000000000000016 10.010000000000003
    vertex -15.627885682970039 -13.000000000000016 8.010000000000005
  endloop
endfacet
facet normal 0.7933533402912354 0.6087614290087204 7.886141412441914e-31
  outer loop
    vertex -15.627885682970039 -13.000000000000016 10.010000000000003
    vertex -16.343019484660548 -12.068019484660551 8.010000000000005
    vertex -16.343019484660548 -12.068019484660551 10.010000000000003
  endloop
endfacet
facet normal 0.9914448613738105 -0.13052619222005202 -2.1671865377966016e-18
  outer loop
    vertex -15.025000000000015 -19.250000000000014 8.010000000000005
    vertex -15.178333781699207 -20.414685702961357 10.010000000000003
    vertex -15.178333781699207 -20.414685702961357 8.010000000000005
  endloop
endfacet
facet normal 0.9914448613738105 -0.13052619222005202 -2.1671865377966016e-18
  outer loop
    vertex -15.178333781699207 -20.414685702961357 10.010000000000003
    vertex -15.025000000000015 -19.250000000000014 8.010000000000005
    vertex -15.025000000000015 -19.250000000000014 10.010000000000003
  endloop
endfacet
facet normal 0.9914448613738105 0.1305261922200517 4.449710701307676e-18
  outer loop
    vertex -15.178333781699205 -14.08531429703867 8.010000000000005
    vertex -15.025000000000013 -15.250000000000014 10.010000000000003
    vertex -15.025000000000013 -15.250000000000014 8.010000000000005
  endloop
endfacet
facet normal 0.9914448613738105 0.1305261922200517 4.449710701307676e-18
  outer loop
    vertex -15.025000000000013 -15.250000000000014 10.010000000000003
    vertex -15.178333781699205 -14.08531429703867 8.010000000000005
    vertex -15.178333781699205 -14.08531429703867 10.010000000000003
  endloop
endfacet
facet normal 0.60876142900872 -0.7933533402912357 -1.0645470061545862e-17
  outer loop
    vertex -16.343019484660548 -22.431980515339475 10.010000000000003
    vertex -17.27500000000001 -23.147114317029985 8.010000000000005
    vertex -16.343019484660548 -22.431980515339475 8.010000000000005
  endloop
endfacet
facet normal 0.60876142900872 -0.7933533402912357 -1.0645470061545862e-17
  outer loop
    vertex -17.27500000000001 -23.147114317029985 8.010000000000005
    vertex -16.343019484660548 -22.431980515339475 10.010000000000003
    vertex -17.27500000000001 -23.147114317029985 10.010000000000003
  endloop
endfacet
facet normal 0.9238795325112865 -0.3826834323650908 0.0
  outer loop
    vertex -15.178333781699207 -20.414685702961357 8.010000000000005
    vertex -15.627885682970042 -21.50000000000001 10.010000000000003
    vertex -15.627885682970042 -21.50000000000001 8.010000000000005
  endloop
endfacet
facet normal 0.9238795325112865 -0.3826834323650908 0.0
  outer loop
    vertex -15.627885682970042 -21.50000000000001 10.010000000000003
    vertex -15.178333781699207 -20.414685702961357 8.010000000000005
    vertex -15.178333781699207 -20.414685702961357 10.010000000000003
  endloop
endfacet
facet normal 0.7933533402912365 -0.6087614290087189 0.0
  outer loop
    vertex -15.627885682970042 -21.50000000000001 8.010000000000005
    vertex -16.343019484660548 -22.431980515339475 10.010000000000003
    vertex -16.343019484660548 -22.431980515339475 8.010000000000005
  endloop
endfacet
facet normal 0.7933533402912365 -0.6087614290087189 0.0
  outer loop
    vertex -16.343019484660548 -22.431980515339475 10.010000000000003
    vertex -15.627885682970042 -21.50000000000001 8.010000000000005
    vertex -15.627885682970042 -21.50000000000001 10.010000000000003
  endloop
endfacet
facet normal 0.9238795325112865 0.3826834323650908 0.0
  outer loop
    vertex -15.627885682970039 -13.000000000000016 8.010000000000005
    vertex -15.178333781699205 -14.08531429703867 10.010000000000003
    vertex -15.178333781699205 -14.08531429703867 8.010000000000005
  endloop
endfacet
facet normal 0.9238795325112865 0.3826834323650908 0.0
  outer loop
    vertex -15.178333781699205 -14.08531429703867 10.010000000000003
    vertex -15.627885682970039 -13.000000000000016 8.010000000000005
    vertex -15.627885682970039 -13.000000000000016 10.010000000000003
  endloop
endfacet
facet normal -0.7933533402912321 0.6087614290087248 3.468361672507057e-18
  outer loop
    vertex -28.939213562373098 -13.835786437626918 14.010000000000003
    vertex -29.257050807568884 -14.250000000000014 10.010000000000003
    vertex -29.257050807568884 -14.250000000000014 14.010000000000003
  endloop
endfacet
facet normal -0.7933533402912321 0.6087614290087248 3.468361672507057e-18
  outer loop
    vertex -29.257050807568884 -14.250000000000014 10.010000000000003
    vertex -28.939213562373098 -13.835786437626918 14.010000000000003
    vertex -28.939213562373098 -13.835786437626918 10.010000000000003
  endloop
endfacet
facet normal 0.6087614290087214 -0.7933533402912347 -3.4683616725066748e-18
  outer loop
    vertex -18.11078643762692 -20.664213562373106 14.010000000000003
    vertex -18.525000000000013 -20.98205080756889 10.010000000000003
    vertex -18.11078643762692 -20.664213562373106 10.010000000000003
  endloop
endfacet
facet normal 0.6087614290087214 -0.7933533402912347 -3.4683616725066748e-18
  outer loop
    vertex -18.525000000000013 -20.98205080756889 10.010000000000003
    vertex -18.11078643762692 -20.664213562373106 14.010000000000003
    vertex -18.525000000000013 -20.98205080756889 14.010000000000003
  endloop
endfacet
facet normal 1.0 -7.049916206369746e-16 0.0
  outer loop
    vertex -17.525000000000013 -15.250000000000014 10.010000000000003
    vertex -17.525000000000016 -19.250000000000014 14.010000000000003
    vertex -17.525000000000016 -19.250000000000014 10.010000000000003
  endloop
endfacet
facet normal 1.0 -7.049916206369746e-16 0.0
  outer loop
    vertex -17.525000000000016 -19.250000000000014 14.010000000000003
    vertex -17.525000000000013 -15.250000000000014 10.010000000000003
    vertex -17.525000000000013 -15.250000000000014 14.010000000000003
  endloop
endfacet
facet normal 0.9238795325112862 -0.3826834323650913 0.0
  outer loop
    vertex -17.59314834742188 -19.767638090205054 10.010000000000003
    vertex -17.792949192431138 -20.25000000000001 14.010000000000003
    vertex -17.792949192431138 -20.25000000000001 10.010000000000003
  endloop
endfacet
facet normal 0.9238795325112862 -0.3826834323650913 0.0
  outer loop
    vertex -17.792949192431138 -20.25000000000001 14.010000000000003
    vertex -17.59314834742188 -19.767638090205054 10.010000000000003
    vertex -17.59314834742188 -19.767638090205054 14.010000000000003
  endloop
endfacet
facet normal 0.13052619222005213 -0.9914448613738105 0.0
  outer loop
    vertex -19.007361909794973 -21.18185165257815 14.010000000000003
    vertex -19.525000000000013 -21.25000000000001 10.010000000000003
    vertex -19.007361909794973 -21.18185165257815 10.010000000000003
  endloop
endfacet
facet normal 0.13052619222005213 -0.9914448613738105 0.0
  outer loop
    vertex -19.525000000000013 -21.25000000000001 10.010000000000003
    vertex -19.007361909794973 -21.18185165257815 14.010000000000003
    vertex -19.525000000000013 -21.25000000000001 14.010000000000003
  endloop
endfacet
facet normal -0.6087614290087179 0.7933533402912374 6.051249136785152e-31
  outer loop
    vertex -28.939213562373098 -13.835786437626918 14.010000000000003
    vertex -28.525000000000006 -13.51794919243114 10.010000000000003
    vertex -28.939213562373098 -13.835786437626918 10.010000000000003
  endloop
endfacet
facet normal -0.6087614290087179 0.7933533402912374 6.051249136785152e-31
  outer loop
    vertex -28.525000000000006 -13.51794919243114 10.010000000000003
    vertex -28.939213562373098 -13.835786437626918 14.010000000000003
    vertex -28.525000000000006 -13.51794919243114 14.010000000000003
  endloop
endfacet
facet normal 0.9914448613738105 -0.13052619222005213 0.0
  outer loop
    vertex -17.525000000000016 -19.250000000000014 10.010000000000003
    vertex -17.59314834742188 -19.767638090205054 14.010000000000003
    vertex -17.59314834742188 -19.767638090205054 10.010000000000003
  endloop
endfacet
facet normal 0.9914448613738105 -0.13052619222005213 0.0
  outer loop
    vertex -17.59314834742188 -19.767638090205054 14.010000000000003
    vertex -17.525000000000016 -19.250000000000014 10.010000000000003
    vertex -17.525000000000016 -19.250000000000014 14.010000000000003
  endloop
endfacet
facet normal 0.3826834323650913 -0.9238795325112862 0.0
  outer loop
    vertex -18.525000000000013 -20.98205080756889 14.010000000000003
    vertex -19.007361909794973 -21.18185165257815 10.010000000000003
    vertex -18.525000000000013 -20.98205080756889 10.010000000000003
  endloop
endfacet
facet normal 0.3826834323650913 -0.9238795325112862 0.0
  outer loop
    vertex -19.007361909794973 -21.18185165257815 10.010000000000003
    vertex -18.525000000000013 -20.98205080756889 14.010000000000003
    vertex -19.007361909794973 -21.18185165257815 14.010000000000003
  endloop
endfacet
facet normal -0.3826834323650912 0.9238795325112862 1.673005560209393e-18
  outer loop
    vertex -28.525000000000006 -13.51794919243114 14.010000000000003
    vertex -28.042638090205045 -13.318148347421879 10.010000000000003
    vertex -28.525000000000006 -13.51794919243114 10.010000000000003
  endloop
endfacet
facet normal -0.3826834323650912 0.9238795325112862 1.673005560209393e-18
  outer loop
    vertex -28.042638090205045 -13.318148347421879 10.010000000000003
    vertex -28.525000000000006 -13.51794919243114 14.010000000000003
    vertex -28.042638090205045 -13.318148347421879 14.010000000000003
  endloop
endfacet
facet normal -0.13052619222005213 0.9914448613738105 5.706310408778662e-19
  outer loop
    vertex -28.042638090205045 -13.318148347421879 14.010000000000003
    vertex -27.525000000000006 -13.250000000000016 10.010000000000003
    vertex -28.042638090205045 -13.318148347421879 10.010000000000003
  endloop
endfacet
facet normal -0.13052619222005213 0.9914448613738105 5.706310408778662e-19
  outer loop
    vertex -27.525000000000006 -13.250000000000016 10.010000000000003
    vertex -28.042638090205045 -13.318148347421879 14.010000000000003
    vertex -27.525000000000006 -13.250000000000016 14.010000000000003
  endloop
endfacet
facet normal -0.9238795325112862 0.3826834323650912 -9.183606183305559e-31
  outer loop
    vertex -29.257050807568884 -14.250000000000014 14.010000000000003
    vertex -29.456851652578145 -14.732361909794971 10.010000000000003
    vertex -29.456851652578145 -14.732361909794971 14.010000000000003
  endloop
endfacet
facet normal -0.9238795325112862 0.3826834323650912 -9.183606183305559e-31
  outer loop
    vertex -29.456851652578145 -14.732361909794971 10.010000000000003
    vertex -29.257050807568884 -14.250000000000014 14.010000000000003
    vertex -29.257050807568884 -14.250000000000014 10.010000000000003
  endloop
endfacet
facet normal 0.0 1.0 0.0
  outer loop
    vertex -27.525000000000006 -13.250000000000016 14.010000000000003
    vertex -19.525000000000013 -13.250000000000016 10.010000000000003
    vertex -27.525000000000006 -13.250000000000016 10.010000000000003
  endloop
endfacet
facet normal 0.0 1.0 0.0
  outer loop
    vertex -19.525000000000013 -13.250000000000016 10.010000000000003
    vertex -27.525000000000006 -13.250000000000016 14.010000000000003
    vertex -19.525000000000013 -13.250000000000016 14.010000000000003
  endloop
endfacet
facet normal 0.13052619222005213 0.9914448613738105 0.0
  outer loop
    vertex -19.525000000000013 -13.250000000000016 14.010000000000003
    vertex -19.007361909794973 -13.318148347421879 10.010000000000003
    vertex -19.525000000000013 -13.250000000000016 10.010000000000003
  endloop
endfacet
facet normal 0.13052619222005213 0.9914448613738105 0.0
  outer loop
    vertex -19.007361909794973 -13.318148347421879 10.010000000000003
    vertex -19.525000000000013 -13.250000000000016 14.010000000000003
    vertex -19.007361909794973 -13.318148347421879 14.010000000000003
  endloop
endfacet
facet normal 0.3826834323650913 0.9238795325112862 0.0
  outer loop
    vertex -19.007361909794973 -13.318148347421879 14.010000000000003
    vertex -18.525000000000013 -13.51794919243114 10.010000000000003
    vertex -19.007361909794973 -13.318148347421879 10.010000000000003
  endloop
endfacet
facet normal 0.3826834323650913 0.9238795325112862 0.0
  outer loop
    vertex -18.525000000000013 -13.51794919243114 10.010000000000003
    vertex -19.007361909794973 -13.318148347421879 14.010000000000003
    vertex -18.525000000000013 -13.51794919243114 14.010000000000003
  endloop
endfacet
facet normal 0.6087614290087153 0.7933533402912393 2.6613675153861943e-18
  outer loop
    vertex -18.525000000000013 -13.51794919243114 14.010000000000003
    vertex -18.110786437626917 -13.835786437626918 10.010000000000003
    vertex -18.525000000000013 -13.51794919243114 10.010000000000003
  endloop
endfacet
facet normal 0.6087614290087153 0.7933533402912393 2.6613675153861943e-18
  outer loop
    vertex -18.110786437626917 -13.835786437626918 10.010000000000003
    vertex -18.525000000000013 -13.51794919243114 14.010000000000003
    vertex -18.110786437626917 -13.835786437626918 14.010000000000003
  endloop
endfacet
facet normal 0.7933533402912374 0.6087614290087179 0.0
  outer loop
    vertex -18.110786437626917 -13.835786437626918 10.010000000000003
    vertex -17.792949192431138 -14.250000000000014 14.010000000000003
    vertex -17.792949192431138 -14.250000000000014 10.010000000000003
  endloop
endfacet
facet normal 0.7933533402912374 0.6087614290087179 0.0
  outer loop
    vertex -17.792949192431138 -14.250000000000014 14.010000000000003
    vertex -18.110786437626917 -13.835786437626918 10.010000000000003
    vertex -18.110786437626917 -13.835786437626918 14.010000000000003
  endloop
endfacet
facet normal 0.9238795325112862 0.3826834323650913 0.0
  outer loop
    vertex -17.792949192431138 -14.250000000000014 10.010000000000003
    vertex -17.593148347421877 -14.732361909794971 14.010000000000003
    vertex -17.593148347421877 -14.732361909794971 10.010000000000003
  endloop
endfacet
facet normal 0.9238795325112862 0.3826834323650913 0.0
  outer loop
    vertex -17.593148347421877 -14.732361909794971 14.010000000000003
    vertex -17.792949192431138 -14.250000000000014 10.010000000000003
    vertex -17.792949192431138 -14.250000000000014 14.010000000000003
  endloop
endfacet
facet normal -1.0 1.4099832412739491e-15 0.0
  outer loop
    vertex -29.52500000000001 -15.250000000000014 14.010000000000003
    vertex -29.525000000000013 -19.250000000000014 10.010000000000003
    vertex -29.525000000000013 -19.250000000000014 14.010000000000003
  endloop
endfacet
facet normal -1.0 1.4099832412739491e-15 0.0
  outer loop
    vertex -29.525000000000013 -19.250000000000014 10.010000000000003
    vertex -29.52500000000001 -15.250000000000014 14.010000000000003
    vertex -29.52500000000001 -15.250000000000014 10.010000000000003
  endloop
endfacet
facet normal -0.9914448613738105 0.13052619222005143 6.487323854318373e-32
  outer loop
    vertex -29.456851652578145 -14.732361909794971 14.010000000000003
    vertex -29.52500000000001 -15.250000000000014 10.010000000000003
    vertex -29.52500000000001 -15.250000000000014 14.010000000000003
  endloop
endfacet
facet normal -0.9914448613738105 0.13052619222005143 6.487323854318373e-32
  outer loop
    vertex -29.52500000000001 -15.250000000000014 10.010000000000003
    vertex -29.456851652578145 -14.732361909794971 14.010000000000003
    vertex -29.456851652578145 -14.732361909794971 10.010000000000003
  endloop
endfacet
facet normal 0.0 -1.0 0.0
  outer loop
    vertex -19.525000000000013 -21.25000000000001 14.010000000000003
    vertex -27.525000000000013 -21.25000000000001 10.010000000000003
    vertex -19.525000000000013 -21.25000000000001 10.010000000000003
  endloop
endfacet
facet normal 0.0 -1.0 0.0
  outer loop
    vertex -27.525000000000013 -21.25000000000001 10.010000000000003
    vertex -19.525000000000013 -21.25000000000001 14.010000000000003
    vertex -27.525000000000013 -21.25000000000001 14.010000000000003
  endloop
endfacet
facet normal 0.7933533402912374 -0.6087614290087179 0.0
  outer loop
    vertex -17.792949192431138 -20.25000000000001 10.010000000000003
    vertex -18.11078643762692 -20.664213562373106 14.010000000000003
    vertex -18.11078643762692 -20.664213562373106 10.010000000000003
  endloop
endfacet
facet normal 0.7933533402912374 -0.6087614290087179 0.0
  outer loop
    vertex -18.11078643762692 -20.664213562373106 14.010000000000003
    vertex -17.792949192431138 -20.25000000000001 10.010000000000003
    vertex -17.792949192431138 -20.25000000000001 14.010000000000003
  endloop
endfacet
facet normal 0.0 0.0 -1.0
  outer loop
    vertex -27.524999999999995 -10.750000000000014 8.010000000000005
    vertex -25.215370196005885 -16.797066671070603 8.010000000000003
    vertex -25.275000000000016 -17.250000000000014 8.010000000000003
  endloop
endfacet
facet normal 0.0 0.0 -1.0
  outer loop
    vertex -25.215370196005885 -16.797066671070603 8.010000000000003
    vertex -27.524999999999995 -10.750000000000014 8.010000000000005
    vertex -25.040544456622783 -16.37500000000001 8.010000000000003
  endloop
endfacet
facet normal 0.0 0.0 -1.0
  outer loop
    vertex -25.040544456622783 -16.37500000000001 8.010000000000003
    vertex -27.524999999999995 -10.750000000000014 8.010000000000005
    vertex -24.762436867076474 -16.012563132923557 8.010000000000003
  endloop
endfacet
facet normal 0.0 0.0 -1.0
  outer loop
    vertex -24.762436867076474 -16.012563132923557 8.010000000000003
    vertex -27.524999999999995 -10.750000000000014 8.010000000000005
    vertex -19.525000000000013 -10.750000000000014 8.010000000000005
  endloop
endfacet
facet normal 0.0 0.0 -1.0
  outer loop
    vertex -24.762436867076474 -16.012563132923557 8.010000000000003
    vertex -19.525000000000013 -10.750000000000014 8.010000000000005
    vertex -24.400000000000013 -15.734455543377244 8.010000000000003
  endloop
endfacet
facet normal 0.0 0.0 -1.0
  outer loop
    vertex -24.400000000000013 -15.734455543377244 8.010000000000003
    vertex -19.525000000000013 -10.750000000000014 8.010000000000005
    vertex -23.977933328929424 -15.559629803994143 8.010000000000003
  endloop
endfacet
facet normal 0.0 0.0 -1.0
  outer loop
    vertex -23.977933328929424 -15.559629803994143 8.010000000000003
    vertex -19.525000000000013 -10.750000000000014 8.010000000000005
    vertex -23.525000000000013 -15.50000000000001 8.010000000000003
  endloop
endfacet
facet normal 0.0 0.0 -1.0
  outer loop
    vertex -23.525000000000013 -15.50000000000001 8.010000000000003
    vertex -19.525000000000013 -10.750000000000014 8.010000000000005
    vertex -23.0720666710706 -15.55962980399414 8.010000000000003
  endloop
endfacet
facet normal 0.0 0.0 -1.0
  outer loop
    vertex -23.0720666710706 -15.55962980399414 8.010000000000003
    vertex -19.525000000000013 -10.750000000000014 8.010000000000005
    vertex -22.650000000000013 -15.734455543377244 8.010000000000003
  endloop
endfacet
facet normal 0.0 0.0 -1.0
  outer loop
    vertex -22.650000000000013 -15.734455543377244 8.010000000000003
    vertex -19.525000000000013 -10.750000000000014 8.010000000000005
    vertex -22.28756313292355 -16.012563132923553 8.010000000000003
  endloop
endfacet
facet normal 0.0 0.0 -1.0
  outer loop
    vertex -22.28756313292355 -16.012563132923553 8.010000000000003
    vertex -19.525000000000013 -10.750000000000014 8.010000000000005
    vertex -22.009455543377243 -16.37500000000001 8.010000000000003
  endloop
endfacet
facet normal 0.0 0.0 -1.0
  outer loop
    vertex -22.009455543377243 -16.37500000000001 8.010000000000003
    vertex -19.525000000000013 -10.750000000000014 8.010000000000005
    vertex -21.834629803994144 -16.797066671070603 8.010000000000003
  endloop
endfacet
facet normal 0.0 0.0 -1.0
  outer loop
    vertex -21.834629803994144 -16.797066671070603 8.010000000000003
    vertex -19.525000000000013 -10.750000000000014 8.010000000000005
    vertex -21.77500000000001 -17.250000000000014 8.010000000000003
  endloop
endfacet
facet normal 0.0 0.0 -1.0
  outer loop
    vertex -32.025000000000006 -15.25000000000001 8.010000000000005
    vertex -31.87166621830082 -20.414685702961357 8.010000000000005
    vertex -32.02500000000001 -19.250000000000014 8.010000000000005
  endloop
endfacet
facet normal 0.0 0.0 -1.0
  outer loop
    vertex -31.87166621830082 -20.414685702961357 8.010000000000005
    vertex -32.025000000000006 -15.25000000000001 8.010000000000005
    vertex -31.871666218300813 -14.085314297038664 8.010000000000005
  endloop
endfacet
facet normal 0.0 0.0 -1.0
  outer loop
    vertex -31.87166621830082 -20.414685702961357 8.010000000000005
    vertex -31.871666218300813 -14.085314297038664 8.010000000000005
    vertex -31.42211431702999 -21.500000000000014 8.010000000000005
  endloop
endfacet
facet normal 0.0 0.0 -1.0
  outer loop
    vertex -31.42211431702999 -21.500000000000014 8.010000000000005
    vertex -31.871666218300813 -14.085314297038664 8.010000000000005
    vertex -31.42211431702998 -13.00000000000001 8.010000000000005
  endloop
endfacet
facet normal 0.0 0.0 -1.0
  outer loop
    vertex -31.42211431702999 -21.500000000000014 8.010000000000005
    vertex -31.42211431702998 -13.00000000000001 8.010000000000005
    vertex -30.706980515339477 -22.43198051533948 8.010000000000005
  endloop
endfacet
facet normal 0.0 0.0 -1.0
  outer loop
    vertex -30.706980515339477 -22.43198051533948 8.010000000000005
    vertex -31.42211431702998 -13.00000000000001 8.010000000000005
    vertex -30.706980515339467 -12.068019484660546 8.010000000000005
  endloop
endfacet
facet normal 0.0 0.0 -1.0
  outer loop
    vertex -30.706980515339477 -22.43198051533948 8.010000000000005
    vertex -30.706980515339467 -12.068019484660546 8.010000000000005
    vertex -29.775000000000013 -23.14711431702999 8.010000000000005
  endloop
endfacet
facet normal 0.0 0.0 -1.0
  outer loop
    vertex -29.775000000000013 -23.14711431702999 8.010000000000005
    vertex -30.706980515339467 -12.068019484660546 8.010000000000005
    vertex -29.774999999999995 -11.352885682970033 8.010000000000005
  endloop
endfacet
facet normal 0.0 0.0 -1.0
  outer loop
    vertex -29.775000000000013 -23.14711431702999 8.010000000000005
    vertex -29.774999999999995 -11.352885682970033 8.010000000000005
    vertex -28.68968570296136 -23.596666218300822 8.010000000000005
  endloop
endfacet
facet normal 0.0 0.0 -1.0
  outer loop
    vertex -28.68968570296136 -23.596666218300822 8.010000000000005
    vertex -29.774999999999995 -11.352885682970033 8.010000000000005
    vertex -28.68968570296134 -10.903333781699205 8.010000000000005
  endloop
endfacet
facet normal 0.0 0.0 -1.0
  outer loop
    vertex -28.68968570296136 -23.596666218300822 8.010000000000005
    vertex -28.68968570296134 -10.903333781699205 8.010000000000005
    vertex -27.525000000000013 -23.750000000000014 8.010000000000005
  endloop
endfacet
facet normal 0.0 0.0 -1.0
  outer loop
    vertex -27.525000000000013 -23.750000000000014 8.010000000000005
    vertex -28.68968570296134 -10.903333781699205 8.010000000000005
    vertex -27.524999999999995 -10.750000000000014 8.010000000000005
  endloop
endfacet
facet normal 0.0 0.0 -1.0
  outer loop
    vertex -27.525000000000013 -23.750000000000014 8.010000000000005
    vertex -27.524999999999995 -10.750000000000014 8.010000000000005
    vertex -25.215370196005885 -17.702933328929426 8.010000000000003
  endloop
endfacet
facet normal 0.0 0.0 -1.0
  outer loop
    vertex -27.525000000000013 -23.750000000000014 8.010000000000005
    vertex -25.215370196005885 -17.702933328929426 8.010000000000003
    vertex -25.040544456622783 -18.125000000000014 8.010000000000003
  endloop
endfacet
facet normal 0.0 0.0 -1.0
  outer loop
    vertex -27.525000000000013 -23.750000000000014 8.010000000000005
    vertex -25.040544456622783 -18.125000000000014 8.010000000000003
    vertex -24.762436867076474 -18.487436867076475 8.010000000000003
  endloop
endfacet
facet normal 0.0 0.0 -1.0
  outer loop
    vertex -27.525000000000013 -23.750000000000014 8.010000000000005
    vertex -24.762436867076474 -18.487436867076475 8.010000000000003
    vertex -19.525000000000002 -23.750000000000014 8.010000000000005
  endloop
endfacet
facet normal 0.0 0.0 -1.0
  outer loop
    vertex -25.215370196005885 -17.702933328929426 8.010000000000003
    vertex -27.524999999999995 -10.750000000000014 8.010000000000005
    vertex -25.275000000000016 -17.250000000000014 8.010000000000003
  endloop
endfacet
facet normal 0.0 0.0 -1.0
  outer loop
    vertex -19.525000000000002 -23.750000000000014 8.010000000000005
    vertex -24.762436867076474 -18.487436867076475 8.010000000000003
    vertex -24.400000000000013 -18.765544456622784 8.010000000000003
  endloop
endfacet
facet normal 0.0 0.0 -1.0
  outer loop
    vertex -19.525000000000002 -23.750000000000014 8.010000000000005
    vertex -24.400000000000013 -18.765544456622784 8.010000000000003
    vertex -23.977933328929424 -18.940370196005887 8.010000000000003
  endloop
endfacet
facet normal 0.0 0.0 -1.0
  outer loop
    vertex -19.525000000000002 -23.750000000000014 8.010000000000005
    vertex -23.977933328929424 -18.940370196005887 8.010000000000003
    vertex -23.525000000000013 -19.000000000000014 8.010000000000003
  endloop
endfacet
facet normal 0.0 0.0 -1.0
  outer loop
    vertex -19.525000000000002 -23.750000000000014 8.010000000000005
    vertex -23.525000000000013 -19.000000000000014 8.010000000000003
    vertex -23.0720666710706 -18.940370196005887 8.010000000000003
  endloop
endfacet
facet normal 0.0 0.0 -1.0
  outer loop
    vertex -19.525000000000002 -23.750000000000014 8.010000000000005
    vertex -23.0720666710706 -18.940370196005887 8.010000000000003
    vertex -22.650000000000013 -18.765544456622784 8.010000000000003
  endloop
endfacet
facet normal 0.0 0.0 -1.0
  outer loop
    vertex -19.525000000000002 -23.750000000000014 8.010000000000005
    vertex -22.650000000000013 -18.765544456622784 8.010000000000003
    vertex -22.28756313292355 -18.487436867076475 8.010000000000003
  endloop
endfacet
facet normal 0.0 0.0 -1.0
  outer loop
    vertex -19.525000000000002 -23.750000000000014 8.010000000000005
    vertex -22.28756313292355 -18.487436867076475 8.010000000000003
    vertex -22.009455543377243 -18.125000000000014 8.010000000000003
  endloop
endfacet
facet normal 0.0 0.0 -1.0
  outer loop
    vertex -19.525000000000002 -23.750000000000014 8.010000000000005
    vertex -22.009455543377243 -18.125000000000014 8.010000000000003
    vertex -21.83462980399414 -17.702933328929426 8.010000000000003
  endloop
endfacet
facet normal 0.0 0.0 -1.0
  outer loop
    vertex -19.525000000000002 -23.750000000000014 8.010000000000005
    vertex -21.83462980399414 -17.702933328929426 8.010000000000003
    vertex -21.77500000000001 -17.250000000000014 8.010000000000003
  endloop
endfacet
facet normal 0.0 0.0 -1.0
  outer loop
    vertex -19.525000000000002 -23.750000000000014 8.010000000000005
    vertex -21.77500000000001 -17.250000000000014 8.010000000000003
    vertex -19.525000000000013 -10.750000000000014 8.010000000000005
  endloop
endfacet
facet normal 0.0 0.0 -1.0
  outer loop
    vertex -19.525000000000002 -23.750000000000014 8.010000000000005
    vertex -19.525000000000013 -10.750000000000014 8.010000000000005
    vertex -18.36031429703867 -10.90333378169921 8.010000000000005
  endloop
endfacet
facet normal 0.0 0.0 -1.0
  outer loop
    vertex -19.525000000000002 -23.750000000000014 8.010000000000005
    vertex -18.36031429703867 -10.90333378169921 8.010000000000005
    vertex -18.360314297038663 -23.59666621830082 8.010000000000005
  endloop
endfacet
facet normal 0.0 0.0 -1.0
  outer loop
    vertex -18.360314297038663 -23.59666621830082 8.010000000000005
    vertex -18.36031429703867 -10.90333378169921 8.010000000000005
    vertex -17.27500000000001 -11.352885682970044 8.010000000000005
  endloop
endfacet
facet normal 0.0 0.0 -1.0
  outer loop
    vertex -18.360314297038663 -23.59666621830082 8.010000000000005
    vertex -17.27500000000001 -11.352885682970044 8.010000000000005
    vertex -17.27500000000001 -23.147114317029985 8.010000000000005
  endloop
endfacet
facet normal 0.0 0.0 -1.0
  outer loop
    vertex -17.27500000000001 -23.147114317029985 8.010000000000005
    vertex -17.27500000000001 -11.352885682970044 8.010000000000005
    vertex -16.343019484660548 -12.068019484660551 8.010000000000005
  endloop
endfacet
facet normal 0.0 0.0 -1.0
  outer loop
    vertex -17.27500000000001 -23.147114317029985 8.010000000000005
    vertex -16.343019484660548 -12.068019484660551 8.010000000000005
    vertex -16.343019484660548 -22.431980515339475 8.010000000000005
  endloop
endfacet
facet normal 0.0 0.0 -1.0
  outer loop
    vertex -16.343019484660548 -22.431980515339475 8.010000000000005
    vertex -16.343019484660548 -12.068019484660551 8.010000000000005
    vertex -15.627885682970039 -13.000000000000016 8.010000000000005
  endloop
endfacet
facet normal 0.0 0.0 -1.0
  outer loop
    vertex -16.343019484660548 -22.431980515339475 8.010000000000005
    vertex -15.627885682970039 -13.000000000000016 8.010000000000005
    vertex -15.627885682970042 -21.50000000000001 8.010000000000005
  endloop
endfacet
facet normal 0.0 0.0 -1.0
  outer loop
    vertex -15.627885682970042 -21.50000000000001 8.010000000000005
    vertex -15.627885682970039 -13.000000000000016 8.010000000000005
    vertex -15.178333781699207 -20.414685702961357 8.010000000000005
  endloop
endfacet
facet normal 0.0 0.0 -1.0
  outer loop
    vertex -15.178333781699207 -20.414685702961357 8.010000000000005
    vertex -15.627885682970039 -13.000000000000016 8.010000000000005
    vertex -15.178333781699205 -14.08531429703867 8.010000000000005
  endloop
endfacet
facet normal 0.0 0.0 -1.0
  outer loop
    vertex -15.178333781699207 -20.414685702961357 8.010000000000005
    vertex -15.178333781699205 -14.08531429703867 8.010000000000005
    vertex -15.025000000000015 -19.250000000000014 8.010000000000005
  endloop
endfacet
facet normal 0.0 0.0 -1.0
  outer loop
    vertex -15.025000000000015 -19.250000000000014 8.010000000000005
    vertex -15.178333781699205 -14.08531429703867 8.010000000000005
    vertex -15.025000000000013 -15.250000000000014 8.010000000000005
  endloop
endfacet
endsolid esp32_rio_case (FDM)
